<svg width="689" height="177" viewBox="0 0 689 177" fill="none" xmlns="http://www.w3.org/2000/svg">
<path fill-rule="evenodd" clip-rule="evenodd" d="M28.5893 48.9232C19.639 75.8305 12.3161 98.4253 12.3161 99.1308C12.3161 99.8381 17.6613 100.406 24.1924 100.394L36.0687 100.373L46.6236 66.7974C52.4298 48.332 57.6589 32.9263 58.2448 32.5656C59.1509 32.0044 68.6185 60.7625 68.6185 64.0773C68.6185 64.7107 65.4814 65.228 61.6493 65.228C54.7769 65.228 54.6414 65.3547 51.9776 74.3244C48.6558 85.5127 48.3549 85.2312 63.1448 84.7508L75.2885 84.3585L77.8116 91.947L80.3364 99.5373L93.0959 100.056C104.694 100.53 105.762 100.29 104.846 97.4171C104.291 95.6805 96.8365 73.2775 88.2821 47.6335L72.725 1.00816L58.7937 0.504953L44.8606 0L28.5893 48.9232ZM109.086 50.2727V100.417H133.718V21.2418H142.32C152.831 21.2418 158.076 25.0158 159.443 33.5579C160.576 40.6415 155.12 49.393 149.569 49.393C142.141 49.393 140.756 51.2193 140.756 61.0176V70.5064H147.48C180.358 70.5064 197.343 32.592 174.31 10.62C165.381 2.10253 157.295 0.128436 131.315 0.128436H109.086V50.2727ZM292.482 37.1419C282.515 41.1447 283.655 53.035 294.993 63.356C303.178 70.8037 304.464 76.0926 298.378 77.2644C296.548 77.6181 294.34 76.6363 293.472 75.0862C291.681 71.8875 287.561 71.3544 285.863 74.1027C284.088 76.9759 289.623 84.0277 294.642 85.2875C310.664 89.3096 315.309 70.5838 301.596 57.2559C297.158 52.9435 293.858 48.42 294.262 47.2042C295.378 43.8595 301.198 43.3862 302.94 46.5005C304.685 49.62 309.663 48.4605 309.663 44.9345C309.663 42.2743 301.374 35.2611 298.429 35.4282C297.35 35.4898 294.674 36.2605 292.482 37.1419ZM317.668 39.4679C310.608 46.5286 311.612 53.1617 321.099 62.0892C329.655 70.1404 331.804 77.5442 325.586 77.5442C323.698 77.5442 321.421 76.2333 320.524 74.634C318.875 71.6852 313.182 72.3837 313.182 75.5349C313.182 83.887 327.05 88.4686 333.327 82.1909C340.325 75.1935 339.361 68.49 329.897 58.3714C325.542 53.7159 321.979 48.6048 321.979 47.0107C321.979 43.3159 328.317 43.1751 330.359 46.8259C331.855 49.4968 337.814 48.742 337.814 45.8811C337.814 37.7454 323.84 33.2976 317.668 39.4679ZM348.904 37.4235C337.548 42.9094 338.597 79.805 350.245 84.6294C362.573 89.7354 369.484 81.188 369.484 60.8294C369.484 39.6474 361.975 31.107 348.904 37.4235ZM379.525 38.8644C374.896 42.5065 374.762 43.1206 374.762 60.8312C374.762 79.944 375.859 83.0178 383.542 85.4564C391.382 87.9442 401.091 78.489 395.922 73.3989C394.386 71.884 393.316 72.1497 391.604 74.4651C385.847 82.2595 383.56 78.3834 383.56 60.8294C383.56 43.4038 385.865 39.3747 391.456 47.023C393.701 50.0932 397.635 48.9496 397.635 45.2266C397.635 37.2739 386.514 33.3679 379.525 38.8644ZM643.078 37.4199C633.639 42.7722 634.348 52.8696 644.838 62.5009C653.457 70.4131 655.516 77.5442 649.182 77.5442C647.215 77.5442 645.151 76.3565 644.595 74.905C643.084 70.9673 636.92 71.5726 636.92 75.6563C636.92 80.778 645.494 86.7725 650.92 85.4458C663.467 82.3756 664.633 68.2279 653.155 58.3415C648.562 54.3881 645.717 50.4399 645.717 48.0259C645.717 43.4971 650.428 42.7018 653.441 46.7204C656.155 50.3413 660.499 47.3467 659.068 42.8426C657.187 36.915 648.914 34.1104 643.078 37.4199ZM670.763 37.1419C660.836 41.1289 661.911 52.7201 673.207 63.4862C677.534 67.6085 680.829 72.2517 680.53 73.8036C679.757 77.8151 674.018 78.4221 671.351 74.773C670.008 72.9379 667.943 72.1374 666.238 72.7919C658.889 75.6123 671.441 87.9073 679.165 85.4564C691.187 81.6401 691.474 68.0871 679.757 57.3299C674.157 52.187 671.917 48.9144 672.665 46.9649C674.02 43.4337 678.023 43.2789 680.82 46.65C682.988 49.261 687.944 48.5361 687.944 45.6066C687.944 43.0783 679.604 35.3033 677.027 35.4282C675.774 35.4898 672.955 36.2605 670.763 37.1419ZM259.702 50.6211C258.049 58.1709 255.623 68.9017 254.309 74.4651L251.918 84.5819H256.202C259.556 84.5819 260.715 83.4348 261.542 79.3036C262.423 74.8944 263.439 74.0253 267.7 74.0253C271.961 74.0253 272.977 74.8944 273.858 79.3036C274.694 83.4788 275.832 84.5819 279.312 84.5819C284.292 84.5819 284.478 87.3847 277.44 56.4308C273.316 38.2873 273.145 37.9478 267.973 37.4252C262.745 36.8991 262.684 36.9959 259.702 50.6211ZM404.673 60.8294V84.5819H413.47V37.0768H404.673V60.8294ZM422.817 60.9226L417.496 84.7667L422.081 84.2353C425.612 83.8254 426.795 82.5885 427.222 78.8637C428.081 71.4125 437.738 71.7661 439.246 79.3036C440.064 83.3908 441.245 84.5819 444.481 84.5819C446.778 84.5819 448.659 84.3462 448.659 84.0594C448.659 82.8735 441.326 49.7695 439.712 43.6748C438.222 38.041 437.247 37.0768 433.051 37.0768C428.176 37.0768 428.095 37.2616 422.817 60.9226ZM448.659 40.5957C448.659 42.9417 449.832 44.1146 452.178 44.1146C455.493 44.1146 455.697 45.2882 455.697 64.3483V84.5819H464.494V44.1146H468.893C472.118 44.1146 473.292 43.1769 473.292 40.5957C473.292 37.4111 472.118 37.0768 460.975 37.0768C449.833 37.0768 448.659 37.4111 448.659 40.5957ZM476.81 60.8294V84.5819H488.247C498.51 84.5819 499.683 84.2213 499.683 81.063C499.683 78.13 498.51 77.5442 492.645 77.5442H485.608V70.5064C485.608 63.8592 485.901 63.4686 490.886 63.4686C494.991 63.4686 496.164 62.6874 496.164 59.9497C496.164 57.212 494.991 56.4308 490.886 56.4308C486.026 56.4308 485.608 55.9416 485.608 50.2727C485.608 44.2607 485.775 44.1146 492.645 44.1146C498.51 44.1146 499.683 43.5287 499.683 40.5957C499.683 37.4375 498.51 37.0768 488.247 37.0768H476.81V60.8294ZM504.962 60.8294V84.5819H514.443C530.018 84.5819 532.233 81.6243 532.233 60.8294C532.233 40.0345 530.018 37.0768 514.443 37.0768H504.962V60.8294ZM548.948 60.8294V84.5819H553.346C557.451 84.5819 557.745 83.996 557.745 75.7847C557.745 67.2901 557.917 66.9875 562.751 66.9875C570.117 66.9875 573.58 62.1067 573.58 51.726C573.58 40.1893 570.279 37.0768 558.046 37.0768H548.948V60.8294ZM578.858 60.8294V84.5819H583.257C587.416 84.5819 587.656 84.0541 587.656 74.905C587.656 69.5826 588.407 65.228 589.325 65.228C590.244 65.228 592.367 69.5826 594.046 74.905C596.588 82.9738 597.773 84.5819 601.174 84.5819C606.111 84.5819 606.174 83.5316 601.921 72.3415C599.133 64.9993 598.983 63.261 600.996 61.5895C604.569 58.6248 605.913 48.6523 603.389 43.8595C600.266 37.9355 598.453 37.1331 588.096 37.1032L578.858 37.0768V60.8294ZM610.528 60.8294V84.5819H621.965C632.228 84.5819 633.401 84.2213 633.401 81.063C633.401 78.13 632.228 77.5442 626.364 77.5442H619.326V70.5064C619.326 63.8592 619.62 63.4686 624.604 63.4686C628.709 63.4686 629.882 62.6874 629.882 59.9497C629.882 57.212 628.709 56.4308 624.604 56.4308C619.744 56.4308 619.326 55.9416 619.326 50.2727C619.326 44.2607 619.493 44.1146 626.364 44.1146C632.228 44.1146 633.401 43.5287 633.401 40.5957C633.401 37.4375 632.228 37.0768 621.965 37.0768H610.528V60.8294ZM350.876 46.4688C348.367 53.0051 351.008 76.6257 354.318 77.2591C356.137 77.6057 358.303 76.8228 359.13 75.5173C360.852 72.8007 361.223 51.0785 359.619 46.8981C358.319 43.5094 352.127 43.2068 350.876 46.4688ZM513.759 60.8294C513.759 76.2721 514.023 77.5442 517.216 77.5442C522.093 77.5442 524.316 72.3133 524.316 60.8294C524.316 49.3455 522.093 44.1146 517.216 44.1146C514.023 44.1146 513.759 45.3867 513.759 60.8294ZM557.745 52.0322C557.745 58.6125 558.305 59.9497 561.058 59.9497C564.832 59.9497 566.528 55.3909 565.247 48.6892C563.611 40.1348 557.745 42.7493 557.745 52.0322ZM587.656 51.1524C587.656 57.0536 588.233 58.1902 591.229 58.1902C595.517 58.1902 597.232 54.4989 595.73 48.5097C593.77 40.6978 587.656 42.7 587.656 51.1524ZM266.982 51.1524C263.873 59.311 264.146 66.9875 267.547 66.9875C271.207 66.9875 271.643 63.6392 269.264 53.7916C268.414 50.268 267.653 49.3883 266.982 51.1524ZM432.23 53.3517C429.07 66.4772 429.091 66.9875 432.791 66.9875C436.605 66.9875 437.059 63.7888 434.661 53.7916L433.394 48.5133L432.23 53.3517ZM0 163.757V176.073H197.058V151.441H0V163.757Z" fill="currentColor"/>
</svg>
