<svg width="1033" height="141" viewBox="0 0 1033 141" fill="none" xmlns="http://www.w3.org/2000/svg">
<path d="M148.721 140.115H247.869V113.951H178.672V81.9345H235.992V55.7706H178.672V26.164H248.213V0H148.721V140.115ZM367.156 88.1312L302.263 0H257.508L271.451 17.7295V140.459H301.402V48.541L368.533 140.115H397.107V0H367.156V88.1312ZM103.451 67.9919C116.533 65.4099 127.549 53.1886 127.549 35.9755C127.377 17.3853 113.951 0 86.9263 0H0L13.4262 17.2131V140.115H89.8525C116.877 140.115 130.82 123.246 130.82 102.074C130.476 84.8608 118.598 70.0575 103.451 67.9919ZM43.5492 26.3361H81.0739C91.2296 26.3361 97.5985 32.1886 97.5985 41.1394C97.5985 49.9181 91.2296 55.9427 81.0739 55.9427H43.5492V26.3361ZM82.4509 114.123H43.7213V81.9345H82.4509C93.8116 81.9345 100.18 89.1641 100.18 97.9427C100.18 108.098 93.4673 113.951 82.4509 114.123ZM835.526 88.1312H851.189V104.656C843.099 111.369 832.943 114.984 822.443 115.156C797.484 115.156 779.755 96.2214 779.755 70.4017C779.755 44.7542 797.484 25.6476 822.443 25.6476C835.525 25.8197 847.575 32.3607 854.46 43.3771L878.042 30.2951C867.886 14.2869 850.157 0 821.927 0C782.337 0 749.288 27.3689 749.288 70.0574C749.288 112.746 781.82 140.115 821.927 140.115C843.788 140.459 864.788 131.164 879.247 114.812V63.0001H815.386L835.526 88.1312ZM700.574 88.1312L635.509 0H590.755L604.697 17.7295V140.459H634.648V48.541L701.779 140.115H730.525V0H700.574V88.1312ZM978.567 0H920.73L934.673 17.7295L932.091 24.4426L887.337 140.459H921.075L929.853 116.877H990.271L999.05 140.459H1032.79L978.567 0ZM937.771 90.369L959.632 29.9509L981.493 90.369H937.771ZM543.591 0H573.542V140.459H543.591V0ZM519.492 24.0984V0H413.976V26.164H480.246L413.976 116.017V140.115H520.697V113.951H452.705L519.492 24.0984Z" fill="currentColor"/>
</svg>
