<svg width="713" height="222" viewBox="0 0 713 222" fill="none" xmlns="http://www.w3.org/2000/svg">
<path fill-rule="evenodd" clip-rule="evenodd" d="M55.2106 221.285H71.7793V132.771H55.2106V221.285ZM115.946 219.957H130.786V164.111L193.251 221.285V134.099H178.453V188.991L115.946 132.771V219.957ZM227.128 198.52C235.205 204.813 244.9 208.451 255.294 208.451C265.418 208.451 272.519 204.965 272.519 197.269C272.519 190.561 267.99 187.933 260.058 184.994L247.217 180.534C235.378 176.33 226.375 170.189 226.375 156.075C226.375 140.979 240.004 132.771 256.303 132.771C266.289 132.771 275.389 135.281 282.498 139.728V154.699C275.106 149.236 267.015 145.474 256.622 145.474C247.673 145.474 240.986 148.814 240.986 155.778C240.986 162.071 245.184 164.588 252.576 167.119L266.884 172.139C280.749 177.014 287.11 184.572 287.11 197.006C287.11 212.648 273.349 221.285 255.294 221.285C243.427 221.285 233.338 217.966 227.128 213.775V198.52ZM325.766 221.285H342.328V132.771H325.766V221.285ZM420.027 207.89C438.698 207.89 448.676 195.913 448.676 177.007C448.676 157.963 438.691 146.027 420.027 146.027H401.563V207.89H420.027ZM386.488 132.771H420.58C446.823 132.771 463.793 150.059 463.793 177.007C463.793 203.976 446.823 221.285 420.58 221.285H386.488V132.771ZM546.622 132.771V146.027H506.535V167.326H542.487V180.43H506.528V207.89H546.622V221.285H491.405V132.771H546.622ZM605.415 172.851H621.852C631.582 172.851 637.066 167.513 637.066 159.305C637.066 151.096 631.582 145.751 621.852 145.751H605.415V172.851ZM605.415 185.368V221.285H590.79V132.771H622.129C639.998 132.771 651.56 141.975 651.56 159.305C651.56 174.124 645.143 182.636 631.471 184.821L662.569 221.285H645.931L615.822 185.375H605.422L605.415 185.368ZM49.4226 45.5709C55.9021 43.199 60.9502 36.0833 60.9502 26.2983C60.9502 9.9924 49.4226 1.54208 30.9799 1.54208H0V92.5663H33.8566C52.2993 92.5663 63.8269 83.5213 63.8269 66.4754C63.8269 56.8357 57.7761 48.3854 49.4226 45.5709ZM14.5495 39.7898V14.8883H30.8416C41.076 14.8883 46.5459 18.5949 46.5459 27.1904C46.5459 35.7859 41.0691 39.7898 30.8416 39.7898H14.5495ZM14.5495 52.5414H33.5662C43.6623 52.5414 49.1322 57.5756 49.1322 65.8807C49.1322 74.0337 43.6554 79.227 33.5731 79.227H14.5564V52.5345L14.5495 52.5414ZM131.423 94.0462C152.604 94.0462 166.87 81.2946 166.87 56.3931V1.54208H151.885V54.609C151.885 72.1044 144.679 80.2642 131.423 80.2642C118.166 80.2642 110.968 72.1044 110.968 54.609V1.54208H95.9824V56.241C95.9824 81.2946 110.387 94.0462 131.423 94.0462ZM202.151 86.0384C208.347 90.4918 218.436 94.0462 230.247 94.0462C248.261 94.0462 261.946 84.849 261.946 68.2526C261.946 55.0585 255.612 47.0507 241.775 41.8644L227.516 36.5259C220.165 33.8635 215.988 31.1943 215.988 24.5212C215.988 17.1081 222.613 13.5537 231.547 13.5537C241.92 13.5537 249.99 17.5507 257.341 23.3387V7.46837C250.28 2.73149 241.201 0.0622364 231.257 0.0622364C214.978 0.0622364 201.432 8.80991 201.432 24.8185C201.432 39.7898 210.366 46.3108 222.177 50.7573L235.005 55.5011C242.93 58.6129 247.397 61.4343 247.397 68.55C247.397 76.7029 240.336 80.4095 230.247 80.4095C219.874 80.4095 210.221 76.5508 202.151 69.8846V86.0384ZM315.49 1.54208H300.512V92.5594H315.49V1.54208ZM358.24 92.4488H372.679V33.2343L433.449 93.8594V1.40378H419.052V59.6087L358.24 0V92.4488ZM527.087 1.56283V15.1926H488.182V37.0998H523.069V50.5775H488.182V78.8121H527.087V92.5871H473.495V1.56283H527.087ZM561.974 85.9762C568.17 90.4295 578.252 93.9839 590.07 93.9839C608.077 93.9839 621.77 84.7937 621.77 68.1904C621.77 54.9963 615.428 46.9954 601.598 41.8021L587.332 36.4705C579.981 33.8013 575.804 31.132 575.804 24.4589C575.804 17.0459 582.429 13.4915 591.364 13.4915C601.736 13.4915 609.806 17.4953 617.157 23.2764V7.41305C610.097 2.66925 601.017 0 591.073 0C574.795 0 561.248 8.74767 561.248 24.7563C561.248 39.7276 570.182 46.2486 581.994 50.695L594.821 55.4388C602.746 58.5506 607.213 61.372 607.213 68.4877C607.213 76.6407 600.16 80.3472 590.064 80.3472C579.691 80.3472 570.037 76.4955 561.974 69.8224V85.9762ZM652.466 85.9762C658.662 90.4295 668.751 93.9839 680.562 93.9839C698.576 93.9839 712.261 84.7937 712.261 68.1904C712.261 54.9963 705.92 46.9954 692.09 41.8021L677.824 36.4705C670.48 33.8013 666.296 31.132 666.296 24.4589C666.296 17.0459 672.928 13.4915 681.855 13.4915C692.228 13.4915 700.305 17.4953 707.649 23.2764V7.41305C700.595 2.66925 691.516 0 681.572 0C665.287 0 651.747 8.74767 651.747 24.7563C651.747 39.7276 660.681 46.2486 672.492 50.695L685.32 55.4388C693.245 58.5506 697.712 61.372 697.712 68.4877C697.712 76.6407 690.651 80.3472 680.562 80.3472C670.189 80.3472 660.536 76.4955 652.466 69.8224V85.9762Z" fill="currentColor"/>
</svg>
