<svg width="550" height="222" viewBox="0 0 550 222" fill="none" xmlns="http://www.w3.org/2000/svg">
<path fill-rule="evenodd" clip-rule="evenodd" d="M74.2238 69.9784C70.1348 70.4556 67.0143 73.7764 66.7233 77.9656C66.5992 79.7692 66.6374 79.8933 70.7312 90.4236C80.0401 114.376 82.2969 120.144 82.6739 120.955C83.5947 122.921 84.883 124.768 86.5005 126.428C87.741 127.702 88.5569 128.384 89.9358 129.31C92.3644 130.932 93.5716 131.381 103.019 134.177C112.223 136.901 117.252 138.714 121.589 140.866C127.205 143.653 131.122 146.821 133.598 150.585C135.378 153.286 136.953 158.124 137.635 162.996C137.902 164.899 137.907 169.108 137.64 170.83C137.062 174.566 135.908 177.696 134.142 180.316C133.202 181.709 133.532 181.475 134.896 179.776C138.761 174.972 142.697 166.76 144.706 159.312C147.135 150.299 147.469 140.623 145.656 131.462C142.129 113.622 130.869 98.2295 115.009 89.5695C114.012 89.0256 110.219 87.0359 105.071 84.3592C104.288 83.9537 103.224 83.3954 102.704 83.1235C102.184 82.8515 101.12 82.2932 100.337 81.8877C99.5549 81.4821 97.3076 80.3084 95.3418 79.2873C93.376 78.2615 91.1764 77.1163 90.4512 76.7394C88.2468 75.5895 86.7677 74.8165 85.6655 74.2392C80.5649 71.572 78.4083 70.4889 77.7928 70.3029C77.1487 70.1072 75.5073 69.8544 75.097 69.8878C75.0111 69.8878 74.6199 69.9355 74.2238 69.9784Z" fill="currentColor"/>
<path d="M85.3428 159.401C85.0613 159.568 84.6653 159.812 84.4601 159.94C84.2597 160.069 83.8064 160.351 83.4629 160.561C82.189 161.343 78.8013 163.428 75.8908 165.227C73.9775 166.406 73.696 166.582 71.2626 168.09C70.3942 168.629 69.4733 169.197 69.2109 169.349C68.9485 169.507 67.8368 170.189 66.7394 170.871C65.642 171.554 63.7239 172.737 62.4786 173.5C61.2332 174.264 59.0098 175.638 57.5355 176.549C56.0611 177.461 54.1192 178.658 53.2222 179.207C52.3252 179.756 51.4997 180.285 51.3804 180.386C51.2087 180.533 43.2358 185.472 39.2326 187.91C36.1933 189.761 32.6768 190.997 29.0792 191.484C27.4045 191.708 24.2315 191.713 22.5616 191.484C18.0336 190.873 13.8586 189.184 10.2849 186.517C8.88215 185.472 6.2436 182.833 5.23684 181.469C2.86072 178.257 1.31958 174.817 0.52277 170.919C0.341459 170.022 0.164914 169.264 0.136286 169.235C0.0599445 169.159 0.198316 170.514 0.436882 172.284C0.689763 174.126 1.22892 176.788 1.80625 179.069C6.28654 196.699 19.0355 211.037 36.2982 217.86C41.27 219.825 46.2846 221.061 51.7431 221.667C53.7947 221.896 59.5967 221.987 61.739 221.825C71.5536 221.08 80.0991 218.194 88.864 212.654C89.6465 212.163 91.1113 211.237 92.1229 210.598C93.1344 209.958 94.4131 209.152 94.9618 208.799C95.5105 208.446 96.1737 208.031 96.4362 207.873C96.6986 207.716 97.2187 207.391 97.5908 207.148C97.9678 206.905 99.5757 205.888 101.165 204.886L107.525 200.869L109.71 199.49L109.786 199.442L110.025 199.29L110.139 199.218L111.747 198.202L117.306 194.69C124.387 190.243 126.496 188.678 129.788 185.457C131.157 184.117 133.228 181.822 133.328 181.531C133.347 181.473 133.715 180.906 134.144 180.271C135.886 177.695 137.045 174.541 137.622 170.819C137.89 169.097 137.885 164.888 137.618 162.984C137.097 159.301 135.924 155.126 134.655 152.468C132.574 148.107 128.146 144.147 121.781 140.955C120.026 140.073 118.208 139.266 118.007 139.28C117.912 139.285 111.991 142.907 104.843 147.325C97.7006 151.743 91.5026 155.579 91.0684 155.851C90.6342 156.118 89.8899 156.577 89.4128 156.863L85.3428 159.401Z" fill="currentColor"/>
<path d="M0.0429403 138.198L0.0715671 168.983L0.472365 170.772C1.71768 176.359 3.8791 180.391 7.62937 184.137C9.39476 185.897 10.745 186.957 12.6584 188.092C16.7044 190.487 21.0607 191.671 25.832 191.666C30.8276 191.661 35.1552 190.416 39.6069 187.691C40.3607 187.233 43.3046 185.42 46.1531 183.66L51.33 180.463V143.938V107.414V73.9999C51.33 52.6816 51.2919 40.0233 51.2203 39.0261C50.7956 32.7852 48.1857 27.0452 43.7961 22.7081C42.4506 21.3769 41.2959 20.4847 37.8701 18.1276C36.162 16.9539 33.0415 14.802 30.9278 13.3467C28.8189 11.8915 25.3406 9.49626 23.1982 8.02192C21.0559 6.54758 18.007 4.44343 16.4134 3.34602C13.1021 1.06055 12.8397 0.903097 11.8377 0.545247C10.5351 0.0776557 9.15619 -0.0941165 7.8393 0.0490236C4.01269 0.46413 0.949492 3.22673 0.152679 6.98177C0.0286242 7.56388 0.00476872 15.3412 0.00476872 57.5436V107.418H0L0.0429403 138.198Z" fill="currentColor"/>
<path d="M215.219 175.843V45.476H256.62C269.226 45.476 279.255 48.2339 286.612 53.7543C293.97 59.2747 297.653 66.4508 297.653 75.2826C297.653 82.6447 295.539 89.0813 291.398 94.6017C286.97 100.203 280.887 104.259 274.011 106.196V106.563C283.029 107.575 290.11 110.886 295.449 116.593C300.879 122.113 303.546 129.475 303.546 138.398C303.546 149.529 299.127 158.638 290.386 165.446C281.641 172.255 270.514 175.843 257.078 175.843H215.219ZM236.838 62.8628V99.9408H250.822C258.366 99.9408 264.254 98.0991 268.486 94.6971C272.809 91.0184 274.922 86.0467 274.922 79.6102C274.922 68.388 267.47 62.8675 252.569 62.8675H236.838V62.8628ZM236.838 117.328V158.542H255.241C263.333 158.542 269.593 156.701 273.916 153.022C278.334 149.248 280.543 144.1 280.543 137.568C280.543 124.041 271.249 117.328 252.483 117.328H236.838ZM329.946 63.2349C326.539 63.2349 323.504 62.0373 321.114 59.833C318.628 57.6238 317.435 54.7706 317.435 51.278C317.435 47.7806 318.633 44.9321 321.114 42.6275C323.6 40.3278 326.544 39.2256 330.036 39.2256C333.529 39.2256 336.568 40.3278 339.054 42.6275C341.54 44.9273 342.733 47.8712 342.733 51.278C342.733 54.5893 341.535 57.3519 339.054 59.7423C336.568 62.0373 333.534 63.2349 329.946 63.2349ZM340.433 175.843H319.367V82.7354H340.528L340.433 175.843ZM444.858 175.843H423.788V123.401C423.788 105.919 417.624 97.2736 405.39 97.2736C398.949 97.2736 393.614 99.7595 389.382 104.636C385.121 109.693 382.893 116.154 383.127 122.762V175.843H361.966V82.7354H383.127V98.1897H383.494C386.376 92.7218 390.728 88.1747 396.062 85.0495C401.396 81.929 407.494 80.3593 413.668 80.5263C423.788 80.5263 431.518 83.8376 436.852 90.4649C442.186 96.9969 444.858 106.473 444.858 118.983V175.843ZM549.279 168.39C549.279 202.525 532.169 219.635 497.758 219.635C486.865 219.883 476.049 217.812 466.019 213.561V194.241C476.139 200.129 485.892 202.983 495 202.983C517.082 202.983 528.214 192.128 528.214 170.323V160.203H527.846C524.788 165.809 520.222 170.447 514.658 173.586C509.1 176.726 502.763 178.238 496.384 177.962C491.178 178.129 486.002 177.103 481.249 174.97C476.497 172.833 472.298 169.64 468.968 165.633C461.634 156.095 457.951 144.252 458.571 132.238C458.571 116.411 462.25 103.901 469.793 94.5158C477.337 85.1306 487.457 80.531 500.521 80.531C512.754 80.531 521.868 85.5934 527.846 95.618H528.214V82.7354H549.37L549.279 168.39ZM528.395 133.245V121.102C528.395 114.57 526.186 108.959 521.863 104.359C519.826 102.097 517.325 100.303 514.529 99.0963C511.738 97.8891 508.713 97.3023 505.674 97.3691C497.668 97.3691 491.412 100.404 486.903 106.291C481.975 113.568 479.579 122.266 480.095 131.04C480.095 140.24 482.304 147.511 486.531 153.027C490.95 158.547 496.651 161.214 503.827 161.214C511.19 161.214 517.077 158.547 521.586 153.394C526.186 148.06 528.395 141.432 528.395 133.154V133.245Z" fill="currentColor"/>
</svg>
