<svg width="1021" height="144" viewBox="0 0 1021 144" fill="none" xmlns="http://www.w3.org/2000/svg">
<g clip-path="url(#clip0_3938_12426)">
<path fill-rule="evenodd" clip-rule="evenodd" d="M410.793 2.56349C366.343 16.7697 362.592 76.6929 404.929 96.2594C416.721 101.709 441.15 101.251 453.157 95.3548C458.032 92.9603 463.769 89.1411 465.905 86.8662L469.791 82.7295L461.414 74.737L453.037 66.7461L448.307 70.7264C429.189 86.8135 403.614 75.0992 403.614 50.2522C403.614 26.9431 426.976 15.0436 446.172 28.5751L453.383 33.6577L461.041 26.7995C470.268 18.5342 470.47 17.4557 463.85 11.8833C451.414 1.42125 427.51 -2.77762 410.793 2.56349ZM506.512 2.23645C490.533 7.30316 480.893 15.1489 473.43 29.1589C468.068 39.2254 468.231 61.4991 473.746 72.2946C478.54 81.6798 489.057 91.641 499.052 96.2594C510.634 101.612 535.149 101.24 547.334 95.5255C589.607 75.7022 583.972 14.289 538.777 2.25719C528.572 -0.459628 515.043 -0.4692 506.512 2.23645ZM777.153 2.94956C761.342 8.60015 753.669 18.1609 753.913 31.9061C754.189 47.4699 761.564 53.7938 787.588 60.7748C805.408 65.556 808.823 67.3268 808.823 71.7889C808.823 81.088 784.104 81.8824 766.886 73.1369L760.844 70.0675L756.834 79.1353C751.833 90.4445 752.225 91.4017 763.646 95.7521C776.659 100.707 798.671 101.827 811.24 98.1738C832.897 91.8771 842.65 69.1375 830.095 54.2181C824.628 47.7188 817.36 44.2793 800.086 40.0166C792.208 38.072 784.851 35.7237 783.734 34.7968C780.671 32.2538 781.295 25.8551 784.788 23.9853C789.849 21.2781 806.456 22.0534 815.292 25.4116L823.392 28.4889L826.549 21.1234C828.286 17.0713 829.853 12.3204 830.033 10.564C830.882 2.26995 793.939 -3.05041 777.153 2.94956ZM154.346 2.50925C153.689 3.17609 153.15 25.1388 153.15 51.3162V98.9092H184.18C221.629 98.9092 229.514 97.5181 238.247 89.3724C249.714 78.6758 247.794 58.969 234.543 51.3641L229.856 48.6744L234.84 43.5311C238.85 39.3945 239.962 36.7175 240.533 29.8258C241.506 18.1002 238.3 12.3619 227.694 6.8469C219.582 2.63049 218.486 2.49489 187.449 1.90463C169.901 1.56961 155.004 1.84241 154.346 2.50925ZM256.845 50.2522V98.9092H283.966V1.59513H256.845V50.2522ZM288.752 12.7623V23.9295H319.063V98.9092H346.183V23.9295H376.494V1.59513H288.752V12.7623ZM582.289 50.2522V98.9092H609.409V1.59513H582.289V50.2522ZM618.981 50.2522V98.9092H646.022L646.461 73.4241L646.899 47.9406L668.028 73.4241L689.156 98.9092H711.509V1.59513H684.389V53.0934L663.251 27.3818L642.113 1.67011L630.547 1.63183L618.981 1.59513V50.2522ZM721.081 50.2522V98.9092H748.202V1.59513H721.081V50.2522ZM839.792 3.77912C839.331 4.98039 839.173 9.82695 839.442 14.5475L839.932 23.1319L854.689 23.5913L869.445 24.0492V98.9092H896.566V23.9295H926.877V1.59513H883.754C848.724 1.59513 840.473 2.00513 839.792 3.77912ZM0 55.5933V107.996L16.352 124.201L32.7039 140.406L75.7773 140.121C99.4677 139.965 123.696 139.54 129.619 139.178L140.388 138.519V3.19045H0V55.5933ZM67.0031 28.7154C66.0587 32.2251 64.9133 35.0967 64.457 35.0967C64.0023 35.0967 60.3682 34.2751 56.3799 33.2717C50.4486 31.7769 48.874 31.8502 47.7222 33.6705C45.6164 36.9951 45.9785 41.4779 48.3523 41.4779C49.501 41.4779 51.6977 42.3984 53.2356 43.5215C55.8726 45.4503 55.7434 46.7201 50.9511 65.8559L45.8684 86.1467H40.7395C36.7337 86.1467 35.1862 87.0768 33.6755 90.3886C31.3782 95.4314 32.6385 96.6183 41.9711 98.1945L48.1146 99.233L47.0681 106.838C46.0694 114.106 46.2066 114.479 50.1694 115.237C54.9984 116.159 55.1882 115.95 56.6671 108.069C57.8381 101.821 58.4602 101.283 61.954 103.499C63.6243 104.557 63.72 106.171 62.3959 110.962C60.432 118.075 60.4432 118.096 66.2932 118.524C70.2464 118.814 70.9531 118.12 72.4703 112.469L74.182 106.088L82.4809 106.568C87.747 106.871 92.5457 106.134 95.6151 104.547C105.206 99.5872 108.582 84.5067 101.652 77.5767L98.0128 73.9378L101.62 71.2194C110.651 64.4058 108.772 51.6289 97.7943 45.195C90.4127 40.8701 89.8608 39.0148 93.3098 30.1082C94.0357 28.2321 93.1631 27.2254 90.1575 26.4708C84.676 25.0941 83.521 26.005 82.2671 32.6862C81.4918 36.8228 80.4006 38.2873 78.0985 38.2873C74.5123 38.2873 74.4213 37.8199 76.5543 30.3825C78.2325 24.5325 76.8797 22.4076 71.4525 22.3581C69.6083 22.3422 68.1629 24.4065 67.0031 28.7154ZM181.866 31.1084V39.8826H194.272C208.223 39.8826 213.772 37.386 213.772 31.1084C213.772 24.8309 208.223 22.3342 194.272 22.3342H181.866V31.1084ZM514.638 23.9263C492.969 30.7335 490.579 65.7921 511.146 75.1327C534.663 85.8133 556.79 61.6459 545.75 37.3381C540.859 26.5666 526.262 20.2731 514.638 23.9263ZM70.5017 55.1498C69.428 59.1604 68.9622 63.1104 69.4663 63.9256C71.0664 66.5164 87.7199 65.7267 88.7616 63.0115C90.4431 58.6292 87.881 53.087 83.3758 51.3593C72.7383 47.2785 72.5947 47.3216 70.5017 55.1498ZM181.866 68.4435V78.1701H197.571C214.4 78.1701 218.558 76.377 218.558 69.1183C218.558 62.4053 212.961 59.8655 196.857 59.2705L181.866 58.7185V68.4435ZM63.8285 81.2938C61.4961 91.0188 62.1119 92.0781 70.8718 93.391C79.2743 94.6513 83.9884 93.3719 86.2043 89.2288C89.4444 83.1762 83.2865 77.5591 69.9513 74.4036C65.971 73.4608 65.6104 73.8676 63.8285 81.2938Z" fill="currentColor"/>
<path d="M1002.39 22.3346H997.66V0.965088H1003.19L1009.5 16.1985L1015.85 0.965088H1021.35V22.3346H1016.62V9.32973L1011.4 22.3346H1007.61L1002.39 9.32973V22.3346Z" fill="currentColor"/>
<path d="M981.501 22.5479C979.974 22.5479 978.55 22.2833 977.227 21.7542C975.904 21.225 974.744 20.4822 973.746 19.5256C972.749 18.5487 971.966 17.3989 971.396 16.076C970.826 14.7328 970.541 13.2572 970.541 11.6494C970.541 10.0416 970.826 8.57629 971.396 7.25342C971.966 5.91019 972.749 4.76031 973.746 3.80376C974.744 2.82687 975.904 2.07385 977.227 1.5447C978.55 1.01555 979.974 0.750977 981.501 0.750977C983.007 0.750977 984.421 1.01555 985.744 1.5447C987.087 2.07385 988.247 2.82687 989.224 3.80376C990.221 4.76031 991.005 5.91019 991.575 7.25342C992.145 8.57629 992.43 10.0416 992.43 11.6494C992.43 13.2572 992.145 14.7328 991.575 16.076C991.005 17.3989 990.221 18.5487 989.224 19.5256C988.227 20.4822 987.067 21.225 985.744 21.7542C984.421 22.2833 983.007 22.5479 981.501 22.5479ZM981.501 18.5182C982.701 18.5182 983.76 18.2333 984.675 17.6634C985.612 17.0732 986.334 16.2591 986.843 15.2212C987.372 14.1833 987.637 12.9927 987.637 11.6494C987.637 10.2859 987.372 9.09527 986.843 8.07767C986.334 7.03972 985.612 6.23582 984.675 5.66597C983.76 5.07576 982.701 4.78066 981.501 4.78066C980.259 4.78066 979.18 5.07576 978.265 5.66597C977.349 6.23582 976.626 7.03972 976.097 8.07767C975.588 9.09527 975.334 10.2859 975.334 11.6494C975.334 12.9927 975.588 14.1833 976.097 15.2212C976.626 16.2591 977.349 17.0732 978.265 17.6634C979.18 18.2333 980.259 18.5182 981.501 18.5182Z" fill="currentColor"/>
<path d="M945.203 11.6494C945.203 10.062 945.468 8.60682 945.997 7.28395C946.546 5.94072 947.299 4.78066 948.256 3.80376C949.212 2.82687 950.352 2.07385 951.675 1.5447C952.998 1.01555 954.433 0.750977 955.979 0.750977C958.279 0.750977 960.284 1.31065 961.993 2.43001C963.703 3.54937 964.945 5.11647 965.718 7.13131L961.688 8.13873C961.302 7.32465 960.813 6.67339 960.223 6.18494C959.633 5.67614 958.981 5.30981 958.269 5.08594C957.557 4.84172 956.804 4.7196 956.01 4.7196C954.789 4.7196 953.72 5.02488 952.805 5.63544C951.889 6.22565 951.176 7.03972 950.668 8.07767C950.179 9.11562 949.935 10.3062 949.935 11.6494C949.935 13.013 950.179 14.2138 950.668 15.2517C951.176 16.2897 951.889 17.1038 952.805 17.694C953.72 18.2842 954.789 18.5793 956.01 18.5793C956.824 18.5793 957.597 18.4572 958.33 18.2129C959.083 17.9687 959.765 17.5617 960.375 16.9918C961.006 16.422 961.536 15.6588 961.963 14.7022L965.932 15.6181C965.117 17.8771 963.845 19.5969 962.116 20.7773C960.386 21.9577 958.34 22.5479 955.979 22.5479C954.433 22.5479 952.998 22.2833 951.675 21.7542C950.352 21.225 949.212 20.4822 948.256 19.5256C947.299 18.5487 946.546 17.3989 945.997 16.076C945.468 14.7328 945.203 13.2572 945.203 11.6494Z" fill="currentColor"/>
<path d="M937.532 22.5785C936.677 22.5785 935.985 22.3241 935.456 21.8153C934.927 21.2861 934.662 20.645 934.662 19.892C934.662 19.1593 934.927 18.5386 935.456 18.0298C935.985 17.5007 936.677 17.2361 937.532 17.2361C938.366 17.2361 939.048 17.5007 939.577 18.0298C940.106 18.5386 940.371 19.1593 940.371 19.892C940.371 20.645 940.106 21.2861 939.577 21.8153C939.048 22.3241 938.366 22.5785 937.532 22.5785Z" fill="currentColor"/>
<path d="M921.152 117.159H924.105L915.61 131.461V140.387H912.956V131.494L904.461 117.159H907.414L914.283 128.939L921.152 117.159Z" fill="currentColor"/>
<path d="M896.345 124.128C895.505 122.469 894.387 121.252 892.994 120.478C891.6 119.681 890.052 119.283 888.348 119.283C886.667 119.283 885.152 119.67 883.802 120.445C882.453 121.219 881.391 122.314 880.617 123.73C879.842 125.145 879.455 126.827 879.455 128.773C879.455 130.698 879.842 132.368 880.617 133.784C881.391 135.2 882.453 136.295 883.802 137.069C885.152 137.843 886.667 138.23 888.348 138.23C889.609 138.23 890.782 138.02 891.866 137.6C892.95 137.158 893.89 136.538 894.686 135.742C895.483 134.923 896.091 133.95 896.511 132.822V130.134H888.547V127.977H899.199V132.954C898.69 134.437 897.916 135.753 896.876 136.903C895.836 138.053 894.587 138.96 893.127 139.624C891.667 140.288 890.074 140.62 888.348 140.62C886.711 140.62 885.185 140.332 883.769 139.757C882.375 139.182 881.148 138.374 880.086 137.334C879.046 136.273 878.228 135.023 877.63 133.585C877.055 132.125 876.768 130.521 876.768 128.773C876.768 127.026 877.055 125.433 877.63 123.995C878.228 122.535 879.046 121.285 880.086 120.245C881.148 119.184 882.375 118.365 883.769 117.79C885.185 117.215 886.711 116.927 888.348 116.927C889.875 116.927 891.301 117.182 892.629 117.69C893.978 118.177 895.173 118.896 896.212 119.847C897.252 120.776 898.071 121.916 898.668 123.265L896.345 124.128Z" fill="currentColor"/>
<path d="M859.77 140.62C858.133 140.62 856.607 140.332 855.191 139.757C853.797 139.182 852.57 138.374 851.508 137.334C850.468 136.273 849.649 135.023 849.052 133.585C848.477 132.125 848.189 130.521 848.189 128.773C848.189 127.026 848.477 125.433 849.052 123.995C849.649 122.535 850.468 121.285 851.508 120.245C852.57 119.184 853.797 118.365 855.191 117.79C856.607 117.215 858.133 116.927 859.77 116.927C861.385 116.927 862.889 117.215 864.283 117.79C865.699 118.365 866.926 119.184 867.966 120.245C869.006 121.285 869.813 122.535 870.389 123.995C870.986 125.433 871.284 127.026 871.284 128.773C871.284 130.521 870.986 132.125 870.389 133.585C869.813 135.023 869.006 136.273 867.966 137.334C866.926 138.374 865.699 139.182 864.283 139.757C862.889 140.332 861.385 140.62 859.77 140.62ZM859.77 138.297C861.429 138.297 862.922 137.91 864.25 137.135C865.577 136.361 866.628 135.266 867.402 133.85C868.176 132.412 868.563 130.72 868.563 128.773C868.563 126.805 868.176 125.112 867.402 123.696C866.628 122.259 865.577 121.164 864.25 120.411C862.922 119.637 861.429 119.25 859.77 119.25C858.089 119.25 856.574 119.637 855.224 120.411C853.897 121.164 852.846 122.259 852.072 123.696C851.298 125.112 850.91 126.805 850.91 128.773C850.91 130.72 851.298 132.412 852.072 133.85C852.846 135.266 853.897 136.361 855.224 137.135C856.574 137.91 858.089 138.297 859.77 138.297Z" fill="currentColor"/>
<path d="M832.344 117.159V138.064H843.195V140.387H829.689V117.159H832.344Z" fill="currentColor"/>
<path d="M811.299 140.62C809.662 140.62 808.136 140.332 806.72 139.757C805.327 139.182 804.099 138.374 803.037 137.334C801.997 136.273 801.179 135.023 800.581 133.585C800.006 132.125 799.719 130.521 799.719 128.773C799.719 127.026 800.006 125.433 800.581 123.995C801.179 122.535 801.997 121.285 803.037 120.245C804.099 119.184 805.327 118.365 806.72 117.79C808.136 117.215 809.662 116.927 811.299 116.927C812.914 116.927 814.419 117.215 815.812 117.79C817.228 118.365 818.456 119.184 819.496 120.245C820.535 121.285 821.343 122.535 821.918 123.995C822.515 125.433 822.814 127.026 822.814 128.773C822.814 130.521 822.515 132.125 821.918 133.585C821.343 135.023 820.535 136.273 819.496 137.334C818.456 138.374 817.228 139.182 815.812 139.757C814.419 140.332 812.914 140.62 811.299 140.62ZM811.299 138.297C812.959 138.297 814.452 137.91 815.779 137.135C817.106 136.361 818.157 135.266 818.931 133.85C819.706 132.412 820.093 130.72 820.093 128.773C820.093 126.805 819.706 125.112 818.931 123.696C818.157 122.259 817.106 121.164 815.779 120.411C814.452 119.637 812.959 119.25 811.299 119.25C809.618 119.25 808.103 119.637 806.753 120.411C805.426 121.164 804.375 122.259 803.601 123.696C802.827 125.112 802.44 126.805 802.44 128.773C802.44 130.72 802.827 132.412 803.601 133.85C804.375 135.266 805.426 136.361 806.753 137.135C808.103 137.91 809.618 138.297 811.299 138.297Z" fill="currentColor"/>
<path d="M792.813 117.159V140.387H790.125L777.715 121.407V140.387H775.061V117.159H777.748L790.159 136.107V117.159H792.813Z" fill="currentColor"/>
<path d="M749.01 117.159H751.664V127.413H764.108V117.159H766.762V140.387H764.108V129.736H751.664V140.387H749.01V117.159Z" fill="currentColor"/>
<path d="M719.588 128.773C719.588 127.026 719.875 125.433 720.451 123.995C721.026 122.535 721.833 121.285 722.873 120.245C723.935 119.184 725.151 118.365 726.523 117.79C727.917 117.215 729.432 116.927 731.069 116.927C733.458 116.927 735.549 117.48 737.341 118.586C739.154 119.692 740.526 121.263 741.455 123.298L739.298 124.095C738.789 123.011 738.115 122.126 737.274 121.44C736.434 120.732 735.482 120.201 734.42 119.847C733.359 119.493 732.241 119.316 731.069 119.316C729.41 119.316 727.917 119.692 726.589 120.445C725.262 121.197 724.211 122.281 723.437 123.696C722.685 125.112 722.309 126.805 722.309 128.773C722.309 130.72 722.685 132.401 723.437 133.817C724.211 135.233 725.262 136.328 726.589 137.102C727.917 137.854 729.41 138.23 731.069 138.23C732.264 138.23 733.403 138.042 734.487 137.666C735.571 137.29 736.544 136.704 737.407 135.908C738.292 135.111 739 134.116 739.531 132.921L741.687 133.718C740.736 135.996 739.343 137.722 737.506 138.894C735.67 140.044 733.525 140.62 731.069 140.62C729.432 140.62 727.917 140.332 726.523 139.757C725.151 139.182 723.935 138.363 722.873 137.301C721.833 136.239 721.026 134.99 720.451 133.552C719.875 132.092 719.588 130.499 719.588 128.773Z" fill="currentColor"/>
<path d="M713.338 119.482H700.762V127.413H710.219V129.736H700.762V138.064H713.338V140.387H698.107V117.159H713.338V119.482Z" fill="currentColor"/>
<path d="M673.805 117.159H691.225V119.482H683.859V140.387H681.204V119.482H673.805V117.159Z" fill="currentColor"/>
<path d="M648.141 120.644C647.699 120.201 647.146 119.869 646.482 119.648C645.841 119.405 645.111 119.283 644.292 119.283C642.766 119.283 641.626 119.681 640.874 120.478C640.144 121.274 639.779 122.281 639.779 123.497C639.779 124.382 640.001 125.112 640.443 125.687C640.908 126.263 641.604 126.694 642.533 126.982C643.485 127.269 644.679 127.413 646.117 127.413H653.318V129.736H646.15C643.938 129.736 642.246 130.056 641.073 130.698C639.923 131.317 639.348 132.435 639.348 134.049C639.348 134.89 639.514 135.631 639.846 136.273C640.177 136.914 640.697 137.412 641.405 137.766C642.113 138.098 643.031 138.264 644.159 138.264C645.863 138.264 647.068 137.854 647.776 137.036C648.484 136.217 648.838 134.967 648.838 133.286V129.039H651.393V133.286C651.393 135.034 651.106 136.45 650.53 137.534C649.955 138.595 649.126 139.381 648.042 139.89C646.958 140.376 645.664 140.62 644.159 140.62C642.5 140.62 641.107 140.354 639.978 139.823C638.872 139.27 638.043 138.518 637.49 137.567C636.937 136.593 636.66 135.498 636.66 134.282C636.66 133.176 636.87 132.246 637.291 131.494C637.711 130.72 638.286 130.101 639.016 129.636C639.768 129.149 640.62 128.807 641.571 128.607V128.442C640.62 128.265 639.812 127.922 639.149 127.413C638.485 126.904 637.976 126.296 637.622 125.588C637.269 124.858 637.092 124.073 637.092 123.232C637.092 122.082 637.357 121.031 637.888 120.08C638.441 119.128 639.248 118.365 640.31 117.79C641.372 117.215 642.666 116.927 644.193 116.927C645.453 116.927 646.593 117.126 647.61 117.525C648.65 117.901 649.524 118.443 650.232 119.15L648.141 120.644ZM650.232 119.15L648.141 120.644L650.232 119.15ZM647.577 127.413C647.865 127.413 648.119 127.358 648.34 127.247C648.562 127.114 648.728 126.937 648.838 126.716C648.949 126.495 649.004 126.24 649.004 125.953V123.331H651.426V127.413H655.873V129.736H651.426V135.045C651.426 136.129 651.714 136.925 652.289 137.434C652.864 137.943 653.627 138.197 654.579 138.197C654.778 138.197 654.977 138.186 655.176 138.164C655.397 138.142 655.63 138.12 655.873 138.098V140.255C655.585 140.321 655.287 140.376 654.977 140.42C654.689 140.465 654.413 140.487 654.147 140.487C653.218 140.487 652.344 140.299 651.526 139.923C650.73 139.547 650.077 138.96 649.568 138.164C649.059 137.346 648.805 136.306 648.805 135.045V129.736H646.316V127.413H647.577Z" fill="currentColor"/>
<path d="M604.858 134.481C604.991 135.078 605.267 135.675 605.687 136.273C606.13 136.848 606.727 137.334 607.479 137.733C608.254 138.109 609.238 138.297 610.433 138.297C612.136 138.297 613.397 137.899 614.215 137.102C615.034 136.306 615.443 135.366 615.443 134.282C615.443 133.419 615.211 132.711 614.746 132.158C614.282 131.605 613.651 131.151 612.855 130.798C612.059 130.421 611.163 130.09 610.167 129.802C609.282 129.559 608.397 129.293 607.512 129.006C606.65 128.696 605.864 128.32 605.157 127.877C604.449 127.413 603.885 126.816 603.464 126.086C603.044 125.356 602.834 124.449 602.834 123.365C602.834 122.059 603.143 120.931 603.763 119.98C604.382 119.007 605.256 118.255 606.384 117.724C607.513 117.193 608.829 116.927 610.333 116.927C611.638 116.927 612.777 117.115 613.751 117.491C614.724 117.867 615.532 118.398 616.173 119.084C616.837 119.748 617.323 120.522 617.633 121.407L615.277 122.303C615.122 121.794 614.824 121.307 614.381 120.843C613.939 120.356 613.364 119.958 612.656 119.648C611.948 119.339 611.14 119.184 610.233 119.184C609.349 119.184 608.541 119.339 607.811 119.648C607.103 119.958 606.539 120.4 606.119 120.976C605.699 121.551 605.488 122.248 605.488 123.066C605.488 123.951 605.732 124.659 606.218 125.19C606.727 125.698 607.391 126.119 608.209 126.451C609.05 126.76 609.968 127.059 610.963 127.347C611.87 127.634 612.744 127.944 613.585 128.276C614.448 128.607 615.211 129.017 615.874 129.503C616.56 129.99 617.102 130.598 617.5 131.328C617.899 132.058 618.098 132.954 618.098 134.016C618.098 135.189 617.821 136.284 617.268 137.301C616.715 138.297 615.874 139.104 614.746 139.724C613.64 140.321 612.213 140.62 610.466 140.62C609.006 140.62 607.723 140.398 606.617 139.956C605.51 139.491 604.604 138.872 603.896 138.098C603.188 137.323 602.701 136.439 602.436 135.443L604.858 134.481Z" fill="currentColor"/>
<path d="M576.262 140.387H573.342L566.805 117.159H569.625L574.802 137.168L580.509 117.159H583.462L589.137 137.135L594.346 117.159H597.133L590.597 140.387H587.676L581.969 121.141L576.262 140.387Z" fill="currentColor"/>
<path d="M561.053 119.482H548.477V127.413H557.934V129.736H548.477V138.064H561.053V140.387H545.822V117.159H561.053V119.482Z" fill="currentColor"/>
<path d="M537.524 117.159V140.387H534.836L522.426 121.407V140.387H519.771V117.159H522.459L534.87 136.107V117.159H537.524Z" fill="currentColor"/>
<path d="M498.412 117.159H501.365L492.87 131.461V140.387H490.215V131.494L481.721 117.159H484.674L491.543 128.939L498.412 117.159Z" fill="currentColor"/>
<path d="M454.193 128.773C454.193 127.026 454.481 125.433 455.056 123.995C455.631 122.535 456.439 121.285 457.478 120.245C458.54 119.184 459.757 118.365 461.128 117.79C462.522 117.215 464.038 116.927 465.675 116.927C468.064 116.927 470.154 117.48 471.946 118.586C473.76 119.692 475.132 121.263 476.061 123.298L473.904 124.095C473.395 123.011 472.72 122.126 471.88 121.44C471.039 120.732 470.088 120.201 469.026 119.847C467.964 119.493 466.847 119.316 465.675 119.316C464.015 119.316 462.522 119.692 461.195 120.445C459.868 121.197 458.817 122.281 458.043 123.696C457.29 125.112 456.914 126.805 456.914 128.773C456.914 130.72 457.29 132.401 458.043 133.817C458.817 135.233 459.868 136.328 461.195 137.102C462.522 137.854 464.015 138.23 465.675 138.23C466.869 138.23 468.008 138.042 469.092 137.666C470.176 137.29 471.15 136.704 472.012 135.908C472.897 135.111 473.605 134.116 474.136 132.921L476.293 133.718C475.342 135.996 473.948 137.722 472.112 138.894C470.276 140.044 468.13 140.62 465.675 140.62C464.038 140.62 462.522 140.332 461.128 139.757C459.757 139.182 458.54 138.363 457.478 137.301C456.439 136.239 455.631 134.99 455.056 133.552C454.481 132.092 454.193 130.499 454.193 128.773Z" fill="currentColor"/>
<path d="M447.288 117.159V140.387H444.6L432.19 121.407V140.387H429.535V117.159H432.223L444.633 136.107V117.159H447.288Z" fill="currentColor"/>
<path d="M421.889 119.482H409.313V127.413H418.77V129.736H409.313V138.064H421.889V140.387H406.658V117.159H421.889V119.482Z" fill="currentColor"/>
<path d="M396.671 124.028C396.671 122.635 396.262 121.528 395.444 120.71C394.625 119.891 393.287 119.482 391.429 119.482H385.92V128.574H391.462C392.678 128.574 393.663 128.386 394.415 128.01C395.189 127.634 395.753 127.103 396.107 126.417C396.483 125.732 396.671 124.935 396.671 124.028ZM391.429 117.159C393.242 117.159 394.725 117.469 395.875 118.089C397.047 118.708 397.921 119.538 398.496 120.577C399.072 121.595 399.359 122.745 399.359 124.028C399.359 124.935 399.204 125.798 398.895 126.616C398.607 127.435 398.142 128.165 397.501 128.806C396.859 129.448 396.041 129.957 395.045 130.333C394.05 130.709 392.855 130.897 391.462 130.897H385.92V140.387H383.266V117.159H391.429ZM393.353 129.902L399.791 140.387H396.771L390.499 129.902H393.353Z" fill="currentColor"/>
<path d="M373.279 124.028C373.279 122.635 372.87 121.528 372.051 120.71C371.233 119.891 369.894 119.482 368.036 119.482H362.528V128.574H368.069C369.286 128.574 370.27 128.386 371.022 128.01C371.797 127.634 372.361 127.103 372.715 126.417C373.091 125.732 373.279 124.935 373.279 124.028ZM368.036 117.159C369.85 117.159 371.332 117.469 372.482 118.089C373.655 118.708 374.529 119.538 375.104 120.577C375.679 121.595 375.967 122.745 375.967 124.028C375.967 124.935 375.812 125.798 375.502 126.616C375.214 127.435 374.75 128.165 374.108 128.806C373.467 129.448 372.648 129.957 371.653 130.333C370.657 130.709 369.463 130.897 368.069 130.897H362.528V140.387H359.873V117.159H368.036ZM369.961 129.902L376.398 140.387H373.378L367.107 129.902H369.961Z" fill="currentColor"/>
<path d="M333.947 117.159H336.602V131.826C336.602 133.352 336.878 134.591 337.431 135.543C337.984 136.494 338.726 137.191 339.655 137.633C340.606 138.075 341.679 138.297 342.873 138.297C344.046 138.297 345.097 138.075 346.026 137.633C346.955 137.191 347.696 136.494 348.249 135.543C348.802 134.591 349.078 133.352 349.078 131.826V117.159H351.733V131.793C351.733 133.319 351.49 134.636 351.003 135.742C350.539 136.848 349.886 137.766 349.045 138.496C348.205 139.204 347.253 139.735 346.192 140.089C345.13 140.442 344.013 140.619 342.84 140.619C341.247 140.619 339.776 140.31 338.427 139.69C337.077 139.049 335.994 138.075 335.175 136.77C334.357 135.465 333.947 133.806 333.947 131.793V117.159Z" fill="currentColor"/>
<path d="M304.658 128.773C304.658 127.026 304.946 125.433 305.521 123.995C306.096 122.535 306.904 121.285 307.943 120.245C309.005 119.184 310.222 118.365 311.593 117.79C312.987 117.215 314.502 116.927 316.139 116.927C318.528 116.927 320.619 117.48 322.411 118.586C324.225 119.692 325.596 121.263 326.525 123.298L324.369 124.095C323.86 123.011 323.185 122.126 322.344 121.44C321.504 120.732 320.553 120.201 319.491 119.847C318.429 119.493 317.312 119.316 316.139 119.316C314.48 119.316 312.987 119.692 311.66 120.445C310.332 121.197 309.282 122.281 308.507 123.696C307.755 125.112 307.379 126.805 307.379 128.773C307.379 130.72 307.755 132.401 308.507 133.817C309.282 135.233 310.332 136.328 311.66 137.102C312.987 137.854 314.48 138.23 316.139 138.23C317.334 138.23 318.473 138.042 319.557 137.666C320.641 137.29 321.614 136.704 322.477 135.908C323.362 135.111 324.07 134.116 324.601 132.921L326.758 133.718C325.807 135.996 324.413 137.722 322.577 138.894C320.741 140.044 318.595 140.62 316.139 140.62C314.502 140.62 312.987 140.332 311.593 139.757C310.222 139.182 309.005 138.363 307.943 137.301C306.904 136.239 306.096 134.99 305.521 133.552C304.946 132.092 304.658 130.499 304.658 128.773Z" fill="currentColor"/>
<path d="M287.663 140.62C286.026 140.62 284.499 140.332 283.084 139.757C281.69 139.182 280.462 138.374 279.4 137.334C278.361 136.273 277.542 135.023 276.945 133.585C276.37 132.125 276.082 130.521 276.082 128.773C276.082 127.026 276.37 125.433 276.945 123.995C277.542 122.535 278.361 121.285 279.4 120.245C280.462 119.184 281.69 118.365 283.084 117.79C284.499 117.215 286.026 116.927 287.663 116.927C289.278 116.927 290.782 117.215 292.176 117.79C293.591 118.365 294.819 119.184 295.859 120.245C296.899 121.285 297.706 122.535 298.281 123.995C298.878 125.433 299.177 127.026 299.177 128.773C299.177 130.521 298.878 132.125 298.281 133.585C297.706 135.023 296.899 136.273 295.859 137.334C294.819 138.374 293.591 139.182 292.176 139.757C290.782 140.332 289.278 140.62 287.663 140.62ZM287.663 138.297C289.322 138.297 290.815 137.91 292.142 137.135C293.47 136.361 294.52 135.266 295.295 133.85C296.069 132.412 296.456 130.72 296.456 128.773C296.456 126.805 296.069 125.112 295.295 123.696C294.52 122.259 293.47 121.164 292.142 120.411C290.815 119.637 289.322 119.25 287.663 119.25C285.981 119.25 284.466 119.637 283.117 120.411C281.789 121.164 280.739 122.259 279.964 123.696C279.19 125.112 278.803 126.805 278.803 128.773C278.803 130.72 279.19 132.412 279.964 133.85C280.739 135.266 281.789 136.361 283.117 137.135C284.466 137.91 285.981 138.297 287.663 138.297Z" fill="currentColor"/>
<path d="M253.174 117.159H270.595V119.482H263.228V140.387H260.574V119.482H253.174V117.159Z" fill="currentColor"/>
<path d="M239.792 128.574C241.031 128.574 242.037 128.386 242.811 128.01C243.586 127.634 244.15 127.103 244.504 126.417C244.88 125.732 245.068 124.935 245.068 124.028C245.068 122.59 244.647 121.473 243.807 120.677C242.988 119.88 241.65 119.482 239.792 119.482H234.25V128.574H239.792ZM247.689 124.028C247.689 124.935 247.534 125.809 247.225 126.65C246.937 127.468 246.473 128.198 245.831 128.84C245.189 129.481 244.371 129.99 243.375 130.366C242.38 130.72 241.185 130.897 239.792 130.897H234.25V140.387H231.596V117.159H239.792C241.606 117.159 243.088 117.469 244.238 118.089C245.411 118.708 246.273 119.538 246.826 120.577C247.402 121.617 247.689 122.767 247.689 124.028Z" fill="currentColor"/>
<path d="M222.191 117.159H225.144L216.649 131.461V140.387H213.995V131.494L205.5 117.159H208.453L215.322 128.939L222.191 117.159Z" fill="currentColor"/>
<path d="M197.404 124.028C197.404 122.635 196.995 121.528 196.176 120.71C195.358 119.891 194.019 119.482 192.161 119.482H186.653V128.574H192.194C193.411 128.574 194.395 128.386 195.147 128.01C195.922 127.634 196.486 127.103 196.84 126.417C197.216 125.732 197.404 124.935 197.404 124.028ZM192.161 117.159C193.975 117.159 195.457 117.469 196.607 118.089C197.78 118.708 198.654 119.538 199.229 120.577C199.804 121.595 200.092 122.745 200.092 124.028C200.092 124.935 199.937 125.798 199.627 126.616C199.339 127.435 198.875 128.165 198.233 128.806C197.592 129.448 196.773 129.957 195.778 130.333C194.782 130.709 193.588 130.897 192.194 130.897H186.653V140.387H183.998V117.159H192.161ZM194.086 129.902L200.523 140.387H197.503L191.232 129.902H194.086Z" fill="currentColor"/>
<path d="M154.576 128.773C154.576 127.026 154.864 125.433 155.439 123.995C156.014 122.535 156.822 121.285 157.861 120.245C158.923 119.184 160.14 118.365 161.511 117.79C162.905 117.215 164.42 116.927 166.057 116.927C168.446 116.927 170.537 117.48 172.329 118.586C174.143 119.692 175.514 121.263 176.443 123.298L174.287 124.095C173.778 123.011 173.103 122.126 172.262 121.44C171.422 120.732 170.471 120.201 169.409 119.847C168.347 119.493 167.23 119.316 166.057 119.316C164.398 119.316 162.905 119.692 161.578 120.445C160.25 121.197 159.2 122.281 158.425 123.696C157.673 125.112 157.297 126.805 157.297 128.773C157.297 130.72 157.673 132.401 158.425 133.817C159.2 135.233 160.25 136.328 161.578 137.102C162.905 137.854 164.398 138.23 166.057 138.23C167.252 138.23 168.391 138.042 169.475 137.666C170.559 137.29 171.532 136.704 172.395 135.908C173.28 135.111 173.988 134.116 174.519 132.921L176.676 133.718C175.724 135.996 174.331 137.722 172.495 138.894C170.659 140.044 168.513 140.62 166.057 140.62C164.42 140.62 162.905 140.332 161.511 139.757C160.14 139.182 158.923 138.363 157.861 137.301C156.822 136.239 156.014 134.99 155.439 133.552C154.864 132.092 154.576 130.499 154.576 128.773Z" fill="currentColor"/>
</g>
<defs>
<clipPath id="clip0_3938_12426">
<rect width="1021" height="143.578" fill="currentColor"/>
</clipPath>
</defs>
</svg>
