<svg width="992" height="225" viewBox="0 0 992 225" fill="none" xmlns="http://www.w3.org/2000/svg">
<path fill-rule="evenodd" clip-rule="evenodd" d="M236.158 109.3C236.193 129.191 230.643 148.712 220.111 165.737L202.072 141.068C206.392 131.009 208.609 120.208 208.594 109.3C208.593 103.756 208.024 98.2259 206.897 92.7926C206.788 92.276 206.679 91.7742 206.555 91.2729V91.0903C206.415 90.5431 206.29 89.9806 206.135 89.4334C205.979 88.8861 205.917 88.5368 205.792 88.111C205.512 87.1078 205.232 86.0894 204.905 85.071L204.625 84.1744L204.485 83.7333C204.173 82.8214 203.847 81.9096 203.504 80.9825C203.271 80.3439 203.022 79.7208 202.773 79.0976C202.523 78.4744 202.259 77.8512 201.994 77.2433C201.73 76.6348 201.45 76.0116 201.17 75.4037C200.61 74.188 200.018 72.9869 199.38 71.8012C199.131 71.2846 198.85 70.7527 198.555 70.2815C198.555 70.2815 198.477 70.1601 198.446 70.0841C198.415 70.0081 198.446 70.0841 198.446 70.0082C198.15 69.4456 197.823 68.8831 197.481 68.3206C197.138 67.7581 196.812 67.1808 196.438 66.603C195.691 65.3872 194.882 64.1709 194.072 62.9857C189.588 56.511 184.167 50.7052 177.979 45.7487C177.497 45.3535 176.998 44.9734 176.5 44.5935C176.002 44.2135 175.317 43.6815 174.71 43.2559C174.103 42.8302 173.621 42.4503 173.076 42.0855C172.531 41.7207 172.064 41.3711 171.52 41.0366C170.928 40.6263 170.322 40.2463 169.699 39.8663L168.422 39.0759L167.162 38.331C156.343 32.1291 144.252 28.3442 131.757 27.2483C119.262 26.1524 106.674 27.7726 94.897 31.9927C88.671 34.2574 75.6287 41.8727 75.1148 42.2222L59.0059 20.2582L61.0914 18.9206C66.5441 15.2932 72.3148 12.1447 78.3369 9.51182C93.6747 2.83286 110.352 -0.39952 127.139 0.0529567C143.926 0.505433 160.396 4.63122 175.333 12.1262C176.391 12.6583 177.434 13.2054 178.446 13.7678L180.002 14.6494L181.465 15.5006L182.913 16.3519C183.94 16.9751 184.951 17.6135 186.026 18.267L187.193 19.027L188.874 20.167L190.617 21.4134L191.567 22.0974C192.111 22.5079 192.656 22.903 193.123 23.3287C194.539 24.4078 195.925 25.5175 197.279 26.6726C198.633 27.8278 199.956 28.9982 201.263 30.1991L203.177 32.0383C203.816 32.6615 204.438 33.2847 205.06 33.923C206.243 35.1239 207.379 36.3551 208.5 37.6166C208.983 38.1487 209.45 38.6959 209.901 39.2279C210.353 39.7598 210.835 40.3223 211.286 40.8847C211.737 41.4471 212.033 41.7815 212.391 42.2374L213.481 43.6207L214.539 45.0343C214.991 45.627 215.426 46.2198 215.847 46.8278C216.267 47.4359 216.687 48.0438 217.107 48.6518C217.341 48.971 217.543 49.2902 217.761 49.6094C217.979 49.9286 218.212 50.2479 218.399 50.5823L219.411 52.1023C219.893 52.8471 220.361 53.6223 220.812 54.3671C221.263 55.1121 221.465 55.4767 221.776 56.0392C222.088 56.6017 222.43 57.1484 222.742 57.7262L222.819 57.8629C222.845 57.9219 222.876 57.9777 222.913 58.0302C222.934 58.1001 222.965 58.1668 223.006 58.2281C223.042 58.3019 223.083 58.3729 223.13 58.4407L224.002 60.0977L224.127 60.3256C224.453 60.9641 224.78 61.6021 225.092 62.2406C225.403 62.8791 225.761 63.6543 226.103 64.3534L227.053 66.0405C227.317 66.6183 227.551 67.1808 227.8 67.7581L228.407 69.2784C228.687 69.9573 228.952 70.6412 229.201 71.3305C229.287 71.5071 229.36 71.6902 229.419 71.8777C229.715 72.6529 229.994 73.3975 230.259 74.218C230.85 75.9056 231.396 77.6232 231.909 79.3561C232.142 80.1614 232.36 80.9671 232.578 81.7877C232.594 81.8478 232.594 81.9107 232.578 81.9703C233.045 83.7185 233.45 85.4815 233.839 87.2598C234.026 88.1416 234.197 89.0234 234.352 89.9046C234.352 89.9046 234.352 90.1325 234.352 90.2697C234.492 91.0296 234.617 91.7895 234.742 92.58C234.866 93.3704 234.99 94.3277 235.131 95.1794V95.316C235.255 96.2279 235.348 97.155 235.458 98.0668C235.629 99.7697 235.769 101.472 235.862 103.205C236.096 105.241 236.158 107.263 236.158 109.3Z" fill="currentColor"/>
<path d="M206.059 183.92C200.967 189.244 195.341 194.057 189.266 198.284C183.189 202.522 176.698 206.162 169.888 209.152C148.017 218.7 123.589 221.151 100.186 216.148C76.7842 211.144 55.6395 198.947 39.8551 181.348C24.0707 163.748 14.4769 141.671 12.4814 118.356C10.4858 95.0418 16.1934 71.7161 28.7669 51.8012C29.265 50.9956 29.7942 50.2812 30.3234 49.4148C30.8525 48.5484 31.3818 47.8948 31.8798 47.0588C33.8098 44.3228 35.885 41.6881 38.1055 39.1547C38.5257 38.6532 38.9615 38.1516 39.4285 37.6347C39.636 37.3915 39.8539 37.1484 40.0822 36.9052C40.5646 36.358 41.0627 35.8259 41.6386 35.294L42.2144 34.7012L58.339 56.9233L58.5414 57.1972C58.1678 57.6378 57.7942 58.0937 57.4519 58.565C57.0671 59.0007 56.7084 59.4571 56.3779 59.9333C44.297 75.6909 38.3869 95.15 39.716 114.792C41.0451 134.434 49.5256 152.965 63.6247 167.033C77.7239 181.101 96.5111 189.78 116.591 191.5C136.671 193.22 156.718 187.868 173.11 176.411L163.771 163.627L147.756 141.74C154.158 137.252 159.106 131.064 162.013 123.91C164.44 117.861 165.319 111.325 164.572 104.869C163.825 98.4125 161.475 92.2319 157.726 86.8647C153.977 81.497 148.943 77.1051 143.061 74.07C137.179 71.035 130.626 69.448 123.973 69.4485C123.397 69.4485 122.79 69.4485 122.215 69.4485H122.137C114.299 69.7973 106.734 72.3639 100.362 76.8356L84.3779 54.9324C90.523 50.63 97.3618 47.3624 104.612 45.2652C110.925 43.4284 117.478 42.4965 124.067 42.4988C126.121 42.4988 128.129 42.5899 130.121 42.7572C147.148 44.2483 162.987 51.9043 174.527 64.2208C186.068 76.5371 192.474 92.6233 192.487 109.318C192.487 123.204 188.047 136.745 179.787 148.048L189.561 161.409L206.059 183.92Z" fill="currentColor"/>
<path fill-rule="evenodd" clip-rule="evenodd" d="M147.792 141.651C143.445 144.766 138.508 147.008 133.267 148.246C128.026 149.483 122.586 149.692 117.261 148.86C111.937 148.028 106.834 146.173 102.25 143.4C97.666 140.628 93.6906 136.994 90.5555 132.71C87.4204 128.426 85.1873 123.576 83.9862 118.442C82.7852 113.309 82.6398 107.993 83.5582 102.804C84.4771 97.615 86.4413 92.6562 89.3375 88.2146C92.2343 83.7724 96.0047 79.9364 100.43 76.9292L147.792 141.651Z" fill="currentColor"/>
<path d="M279.793 112.962C279.793 106.14 281.268 100.072 284.218 94.7583C287.168 89.3791 291.266 85.2135 296.511 82.2615C301.821 79.2439 307.819 77.7351 314.506 77.7351C322.701 77.7351 329.716 79.8999 335.551 84.2295C341.386 88.5591 345.286 94.4631 347.253 101.941H328.765C327.389 99.0551 325.422 96.8575 322.865 95.3487C320.374 93.8399 317.522 93.0855 314.309 93.0855C309.13 93.0855 304.935 94.8895 301.722 98.4975C298.51 102.105 296.904 106.927 296.904 112.962C296.904 118.997 298.51 123.819 301.722 127.427C304.935 131.035 309.13 132.839 314.309 132.839C317.522 132.839 320.374 132.085 322.865 130.576C325.422 129.067 327.389 126.869 328.765 123.983H347.253C345.286 131.461 341.386 137.365 335.551 141.695C329.716 145.959 322.701 148.091 314.506 148.091C307.819 148.091 301.821 146.615 296.511 143.663C291.266 140.645 287.168 136.48 284.218 131.166C281.268 125.853 279.793 119.785 279.793 112.962Z" fill="currentColor"/>
<path d="M374.367 101.843C376.333 98.8258 378.792 96.4642 381.742 94.7586C384.692 92.9874 387.97 92.1018 391.576 92.1018V109.912H386.954C382.758 109.912 379.611 110.831 377.513 112.667C375.415 114.439 374.367 117.587 374.367 122.114V147.599H357.551V92.6922H374.367V101.843Z" fill="currentColor"/>
<path d="M455.667 92.6924L421.248 173.675H403.154L415.741 145.73L393.418 92.6924H412.201L424.887 127.034L437.474 92.6924H455.667Z" fill="currentColor"/>
<path d="M478.564 100.466C480.203 97.9072 482.465 95.8408 485.35 94.2664C488.234 92.692 491.61 91.9048 495.478 91.9048C500.002 91.9048 504.099 93.0528 507.771 95.3488C511.442 97.6448 514.327 100.925 516.424 105.189C518.588 109.453 519.67 114.406 519.67 120.047C519.67 125.689 518.588 130.674 516.424 135.004C514.327 139.268 511.442 142.581 507.771 144.942C504.099 147.238 500.002 148.386 495.478 148.386C491.676 148.386 488.3 147.599 485.35 146.025C482.465 144.45 480.203 142.417 478.564 139.924V173.773H461.748V92.692H478.564V100.466ZM502.559 120.047C502.559 115.849 501.379 112.569 499.019 110.207C496.724 107.78 493.872 106.566 490.463 106.566C487.12 106.566 484.268 107.78 481.907 110.207C479.613 112.634 478.466 115.947 478.466 120.146C478.466 124.344 479.613 127.657 481.907 130.084C484.268 132.511 487.12 133.725 490.463 133.725C493.807 133.725 496.659 132.511 499.019 130.084C501.379 127.591 502.559 124.245 502.559 120.047Z" fill="currentColor"/>
<path d="M559.076 133.331V147.599H550.521C544.424 147.599 539.671 146.123 536.262 143.171C532.853 140.153 531.148 135.266 531.148 128.509V106.665H524.461V92.6919H531.148V79.3096H547.964V92.6919H558.977V106.665H547.964V128.706C547.964 130.346 548.357 131.527 549.144 132.249C549.931 132.97 551.242 133.331 553.078 133.331H559.076Z" fill="currentColor"/>
<path d="M593.422 148.386C588.043 148.386 583.194 147.238 578.865 144.942C574.606 142.646 571.228 139.366 568.74 135.102C566.313 130.838 565.1 125.853 565.1 120.146C565.1 114.504 566.346 109.551 568.833 105.287C571.326 100.958 574.737 97.6448 579.061 95.3488C583.391 93.0528 588.24 91.9048 593.619 91.9048C598.993 91.9048 603.847 93.0528 608.171 95.3488C612.501 97.6448 615.907 100.958 618.399 105.287C620.892 109.551 622.133 114.504 622.133 120.146C622.133 125.787 620.859 130.773 618.301 135.102C615.808 139.366 612.37 142.646 607.975 144.942C603.65 147.238 598.796 148.386 593.422 148.386ZM593.422 133.823C596.631 133.823 599.354 132.642 601.584 130.281C603.88 127.919 605.023 124.541 605.023 120.146C605.023 115.75 603.913 112.372 601.682 110.01C599.518 107.649 596.828 106.468 593.619 106.468C590.339 106.468 587.617 107.649 585.457 110.01C583.293 112.306 582.21 115.685 582.21 120.146C582.21 124.541 583.26 127.919 585.359 130.281C587.518 132.642 590.208 133.823 593.422 133.823Z" fill="currentColor"/>
<path d="M647.87 100.466C649.51 97.9072 651.773 95.8408 654.66 94.2664C657.541 92.692 660.919 91.9048 664.789 91.9048C669.31 91.9048 673.41 93.0528 677.078 95.3488C680.752 97.6448 683.633 100.925 685.732 105.189C687.897 109.453 688.979 114.406 688.979 120.047C688.979 125.689 687.897 130.674 685.732 135.004C683.633 139.268 680.752 142.581 677.078 144.942C673.41 147.238 669.31 148.386 664.789 148.386C660.985 148.386 657.606 147.599 654.66 146.025C651.773 144.45 649.51 142.417 647.87 139.924V173.773H631.055V92.692H647.87V100.466ZM671.869 120.047C671.869 115.849 670.688 112.569 668.326 110.207C666.03 107.78 663.182 106.566 659.771 106.566C656.431 106.566 653.577 107.78 651.216 110.207C648.92 112.634 647.772 115.947 647.772 120.146C647.772 124.344 648.92 127.657 651.216 130.084C653.577 132.511 656.431 133.725 659.771 133.725C663.117 133.725 665.965 132.511 668.326 130.084C670.688 127.591 671.869 124.245 671.869 120.047Z" fill="currentColor"/>
<path d="M722.78 148.386C717.401 148.386 712.552 147.238 708.222 144.942C703.964 142.646 700.585 139.366 698.098 135.102C695.671 130.838 694.457 125.853 694.457 120.146C694.457 114.504 695.703 109.551 698.196 105.287C700.684 100.958 704.095 97.6448 708.419 95.3488C712.748 93.0528 717.597 91.9048 722.977 91.9048C728.35 91.9048 733.205 93.0528 737.529 95.3488C741.858 97.6448 745.264 100.958 747.757 105.287C750.25 109.551 751.496 114.504 751.496 120.146C751.496 125.787 750.217 130.773 747.659 135.102C745.166 139.366 741.727 142.646 737.332 144.942C733.008 147.238 728.154 148.386 722.78 148.386ZM722.78 133.823C725.989 133.823 728.711 132.642 730.941 130.281C733.237 127.919 734.38 124.541 734.38 120.146C734.38 115.75 733.27 112.372 731.04 110.01C728.875 107.649 726.186 106.468 722.977 106.468C719.697 106.468 716.974 107.649 714.815 110.01C712.65 112.306 711.568 115.685 711.568 120.146C711.568 124.541 712.617 127.919 714.716 130.281C716.876 132.642 719.565 133.823 722.78 133.823Z" fill="currentColor"/>
<path d="M777.231 74.7834V147.599H760.41V74.7834H777.231Z" fill="currentColor"/>
<path d="M797.873 86.985C794.921 86.985 792.494 86.1322 790.597 84.4266C788.76 82.6554 787.842 80.4906 787.842 77.9322C787.842 75.3082 788.76 73.1434 790.597 71.4378C792.494 69.6666 794.921 68.781 797.873 68.781C800.754 68.781 803.116 69.6666 804.952 71.4378C806.855 73.1434 807.806 75.3082 807.806 77.9322C807.806 80.4906 806.855 82.6554 804.952 84.4266C803.116 86.1322 800.754 86.985 797.873 86.985ZM806.232 92.6921V147.599H789.416V92.6921H806.232Z" fill="currentColor"/>
<path d="M849.005 133.331V147.599H840.45C834.349 147.599 829.599 146.123 826.188 143.171C822.782 140.153 821.076 135.266 821.076 128.509V106.665H814.391V92.6919H821.076V79.3096H837.892V92.6919H848.907V106.665H837.892V128.706C837.892 130.346 838.285 131.527 839.073 132.249C839.86 132.97 841.166 133.331 843.003 133.331H849.005Z" fill="currentColor"/>
<path d="M855.021 120.047C855.021 114.406 856.071 109.453 858.17 105.189C860.335 100.925 863.249 97.6448 866.922 95.3488C870.596 93.0528 874.69 91.9048 879.217 91.9048C883.082 91.9048 886.46 92.692 889.347 94.2664C892.293 95.8408 894.556 97.9072 896.131 100.466V92.692H912.946V147.599H896.131V139.825C894.491 142.384 892.195 144.45 889.248 146.025C886.362 147.599 882.983 148.386 879.119 148.386C874.658 148.386 870.596 147.238 866.922 144.942C863.249 142.581 860.335 139.268 858.17 135.004C856.071 130.674 855.021 125.689 855.021 120.047ZM896.131 120.146C896.131 115.947 894.95 112.634 892.588 110.207C890.292 107.78 887.477 106.566 884.131 106.566C880.786 106.566 877.938 107.78 875.576 110.207C873.28 112.569 872.132 115.849 872.132 120.047C872.132 124.245 873.28 127.591 875.576 130.084C877.938 132.511 880.786 133.725 884.131 133.725C887.477 133.725 890.292 132.511 892.588 130.084C894.95 127.657 896.131 124.344 896.131 120.146Z" fill="currentColor"/>
<path d="M958.545 92.1018C964.974 92.1018 970.086 94.201 973.89 98.3994C977.755 102.532 979.69 108.239 979.69 115.521V147.599H962.973V117.784C962.973 114.111 962.022 111.257 960.12 109.223C958.223 107.19 955.664 106.173 952.45 106.173C949.241 106.173 946.683 107.19 944.78 109.223C942.878 111.257 941.927 114.111 941.927 117.784V147.599H925.111V92.6922H941.927V99.9738C943.632 97.5466 945.928 95.6442 948.815 94.2666C951.696 92.8234 954.943 92.1018 958.545 92.1018Z" fill="currentColor"/>
</svg>
