<svg width="658" height="283" viewBox="0 0 658 283" fill="none" xmlns="http://www.w3.org/2000/svg">
<path fill-rule="evenodd" clip-rule="evenodd" d="M240.963 17.091C227.07 21.942 219.852 33.365 217.796 53.75C216.626 65.361 217.858 86.854 219.838 89.36C220.334 89.987 221.261 92.122 221.899 94.105C223.324 98.531 229.06 105.381 233.901 108.437C244.951 115.413 266.311 115.821 276.094 109.244C286.717 102.103 288 99.688 288 86.844V76.133L290.75 75.816C293.041 75.553 293.552 74.958 293.813 72.25L294.127 69H262V72.5C262 75.981 262.024 76 266.5 76H271V88.345C271 102.101 270.866 102.41 263.628 105.4C244.28 113.393 231.039 89.847 234.884 54.286C237.286 32.068 244.353 22 257.544 22C267.41 22 273.715 26.421 276.668 35.411C278.467 40.885 278.569 40.986 282.33 40.993L286.159 41L285.499 34.25C284.602 25.07 284.395 24.539 280.606 21.649C271.91 15.016 253.099 12.854 240.963 17.091ZM29 65V114.028L60.25 113.764L91.5 113.5V16.5L60.25 16.236L29 15.972V65ZM103.39 17.427C102.06 20.892 103.428 23.493 106.75 23.813L110 24.127V105H106.5C103.155 105 103 105.158 103 108.562V112.125L128.25 111.812C152.067 111.518 153.768 111.372 158.22 109.239C172.382 102.454 178.016 89.467 177.983 63.687C177.946 35.11 170.316 22.009 151.023 17.393C142.855 15.438 104.142 15.467 103.39 17.427ZM181.399 17.402C179.974 21.117 181.4 23.492 185.25 23.81L189 24.121V105H185C181.095 105 181 105.083 181 108.5V112H214V108.5C214 105.167 213.833 105 210.5 105H207V24.127L210.25 23.813C213.238 23.525 213.5 23.218 213.5 20V16.5L197.728 16.224C184.68 15.997 181.861 16.2 181.399 17.402ZM293.667 16.667C293.3 17.033 293 18.56 293 20.06C293 22.936 294.507 24 298.582 24H301V104.879L297.25 105.19C293.826 105.473 293.473 105.783 293.187 108.75L292.873 112H326V108.5C326 105.167 325.833 105 322.5 105H319V24H322.5C325.917 24 326 23.905 326 20V16H310.167C301.458 16 294.033 16.3 293.667 16.667ZM331.146 20.75C330.567 23.363 329.807 27.413 329.458 29.75L328.824 34H332.306C335.462 34 336.008 33.556 338.144 29.25L340.5 24.5L349.25 24.211L358 23.922V105H354.5C351.167 105 351 105.167 351 108.5V112H382V108.5C382 105.167 381.833 105 378.5 105H375V23.922L383.75 24.211L392.5 24.5L394.856 29.25C396.993 33.558 397.536 34 400.7 34H404.188L403.514 28.75C403.144 25.862 402.409 21.813 401.882 19.75L400.923 16H332.199L331.146 20.75ZM429.576 17.189C429.351 17.91 428.488 20.525 427.659 23C426.829 25.475 424.256 33.575 421.94 41C419.624 48.425 416.216 59.144 414.365 64.821C412.514 70.497 411 75.983 411 77.012C411 78.041 410.6 79.129 410.111 79.432C409.622 79.735 408.929 81.223 408.572 82.741C407.56 87.041 403.965 99.201 402.804 102.25C401.957 104.476 401.134 105 398.486 105C395.146 105 394 106.299 394 110.082C394 111.851 394.816 112 404.5 112H415V108.5C415 105.667 414.619 105 413 105C410.638 105 410.496 103.394 412.405 98.27C413.177 96.197 414.834 91.237 416.087 87.25L418.365 80H440.098L442.027 84.25C443.088 86.588 443.966 89.31 443.978 90.3C443.99 91.289 444.615 93.314 445.366 94.8C446.118 96.285 447.038 99.188 447.412 101.25C448.015 104.582 447.863 105 446.045 105C444.374 105 444 105.641 444 108.5V112H473V108.5C473 105.161 472.838 105 469.469 105C467.512 105 465.769 104.443 465.559 103.75C464.742 101.051 453.574 65.809 449.793 54C447.592 47.125 445.428 40.6 444.985 39.5C444.542 38.4 442.989 33.45 441.534 28.5C440.079 23.55 438.53 18.825 438.093 18C437.061 16.055 430.134 15.395 429.576 17.189ZM479.693 16.64C479.312 17.022 479 18.56 479 20.06C479 22.827 480.513 24 484.082 24C485.941 24 486 25.242 486 64.5V105H482.5C479.167 105 479 105.167 479 108.5V112H546.711L547.348 105.25C548.435 93.746 548.454 93.829 544.75 94.187C541.939 94.458 541.327 95.04 540.215 98.5C538.193 104.793 537.525 105 519.309 105H503V24.133L505.75 23.816C508.166 23.538 508.5 23.075 508.5 20V16.5L494.443 16.224C486.712 16.072 480.074 16.259 479.693 16.64ZM126 64.5V105.182L136.25 104.841C148.13 104.446 151.897 102.5 155.76 94.767C163.171 79.927 163.217 48.46 155.849 33.475C152.422 26.504 148.338 24.556 136.327 24.159L126 23.818V64.5ZM427.734 50.25C425.458 56.542 421 70.982 421 72.062C421 72.578 425.054 73 430.008 73C438.278 73 438.94 72.856 438.08 71.25C437.565 70.287 435.475 64.213 433.436 57.75C431.397 51.287 429.626 46 429.5 46C429.374 46 428.58 47.913 427.734 50.25ZM163 146.394C145.612 154.042 137.598 178.318 142.495 208.5C146.211 231.402 158.316 243 178.5 243C201.465 243 213.475 229.06 215.546 200C216.667 184.273 212.892 162.645 208.372 158.894C207.617 158.267 207 157.33 207 156.81C207 155.256 199.819 148.968 195.514 146.753C188.939 143.37 170.341 143.165 163 146.394ZM107 148.434C107 151.436 107.345 151.907 109.75 152.184L112.5 152.5L112.795 196.5C112.992 225.879 112.719 242.494 111.974 246.5C110.65 253.611 106.977 259.717 103.498 260.59C99.878 261.499 101.157 268 104.956 268C108.719 268 116.999 264.557 120.296 261.62C129.865 253.101 131 245.845 131 193.172V152H134C136.762 152 137 151.722 137 148.5V145H107V148.434ZM218 148.41C218 151.586 218.269 151.899 221.25 152.187L224.5 152.5L225.023 186C225.545 219.463 225.549 219.506 228.145 225.084C232.484 234.409 237.909 238.878 248.123 241.543C262.847 245.385 277.442 240.025 283.652 228.495C288.04 220.348 288.362 217.672 288.941 184.5L289.5 152.5L292.75 152.187C295.732 151.899 296 151.587 296 148.403V144.932L285.25 145.216L274.5 145.5L274.187 148.75C273.893 151.794 274.072 152 277.018 152H280.164L279.821 185.25C279.486 217.691 279.421 218.622 277.131 223.5C272.774 232.785 266.614 236.069 256.424 234.541C251.222 233.761 246.965 230.484 244.369 225.262C242.672 221.847 242.471 218.296 242.181 186.75L241.861 152H244.994C247.926 152 248.107 151.792 247.813 148.75L247.5 145.5L232.75 145.223L218 144.947V148.41ZM303 148.5C303 151.722 303.238 152 306 152H309V234H306C303.238 234 303 234.278 303 237.5V241H333V237.5C333 234.167 332.833 234 329.5 234H326V197H336.606L342.328 208.25C349.791 222.923 352.324 227.204 358.92 236.289L362.339 241H385.127L384.813 237.75C384.52 234.706 384.233 234.481 380.3 234.195C377.179 233.968 375.941 233.39 375.483 231.945C375.143 230.875 374.524 230 374.108 230C371.75 230 354 200.896 354 197.031C354 196.44 355.238 195.419 356.75 194.76C370.044 188.975 377.218 176.123 373.517 164.723C370.497 155.423 365.004 150.187 354.572 146.664C350.533 145.3 345.434 145 326.322 145H303V148.5ZM389 148.5C389 151.722 389.238 152 392 152H395V234H392C389.238 234 389 234.278 389 237.5V241H411.127L410.813 237.75C410.538 234.892 410.108 234.462 407.25 234.187L404 233.873L404.059 200.687C404.099 178.273 404.441 167.987 405.115 169C405.663 169.825 415.223 186.25 426.36 205.5L446.609 240.5L451.294 240.804L455.979 241.109L456.24 196.814L456.5 152.519L459.5 152C462.049 151.559 462.5 151.03 462.5 148.49V145.5H441.5V148.5C441.5 151.154 441.875 151.536 444.75 151.813L448 152.127L447.994 180.813C447.989 205.361 447.794 209.139 446.649 207C445.912 205.625 444.345 202.925 443.167 201C441.989 199.075 440.577 196.6 440.03 195.5C439.483 194.4 438.014 191.836 436.767 189.802C433.776 184.923 417.745 157.496 415.191 152.887C410.492 144.41 411.647 145 399.759 145H389V148.5ZM499.529 148.584C498.706 150.555 497.528 154.043 496.912 156.334C496.296 158.625 494.559 164.325 493.053 169C491.343 174.323 489.668 179.656 488.027 185C486.334 190.511 484.606 196.011 482.843 201.5C479.413 212.157 476.833 220.389 474.478 228.197C472.832 233.654 472.607 233.906 469.13 234.197C465.84 234.472 465.471 234.805 465.187 237.75L464.873 241H486V237.5C486 234.667 485.619 234 484 234C482.9 234 482 233.353 482 232.562C482 231.145 486.185 217.111 488.206 211.75L489.243 209H500.621C509.952 209 512 209.264 512 210.466C512 211.272 512.612 213.41 513.359 215.216C515.409 220.167 519 231.332 519 232.75C519 233.438 518.1 234 517 234C515.381 234 515 234.667 515 237.5V241H544V237.56C544 234.333 543.777 234.102 540.389 233.81C536.807 233.502 536.759 233.437 534.309 225.5C532.951 221.1 531.464 216.6 531.005 215.5C530.545 214.4 527.389 204.725 523.991 194C520.593 183.275 516.28 169.875 514.406 164.223C512.533 158.57 511 153.463 511 152.874C511 152.285 510.274 150.272 509.386 148.401C506.982 143.335 501.682 143.433 499.529 148.584ZM548.692 145.641C548.312 146.022 548 147.608 548 149.167C548 151.738 548.324 152 551.5 152H555V234H551.5C548.167 234 548 234.167 548 237.5V241H615.654L616.88 232.99C618.26 223.977 617.997 222.999 614.191 223.004C611.931 223.007 611.1 223.847 609 228.254L606.5 233.5L589.25 233.774L572 234.047V152H575.563C578.981 152 579.114 151.867 578.813 148.75L578.5 145.5L563.942 145.224C555.936 145.073 549.073 145.26 548.692 145.641ZM170.823 152.778C160.222 159.77 155.303 185.294 159.627 210.876C162.143 225.766 166.482 232.756 174.532 234.89C185.796 237.878 194.524 229.344 197.102 212.824C198.995 200.685 197.774 171.78 195.086 165.102C191.016 154.993 186.331 151.013 178.5 151.013C175.399 151.013 172.483 151.684 170.823 152.778ZM326.444 153.285C326.173 153.992 326.074 162.429 326.225 172.035L326.5 189.5L335.552 189.785C344.229 190.058 344.774 189.946 348.737 187.076C360.623 178.465 359.282 158.776 346.444 153.412C342.036 151.57 327.138 151.476 326.444 153.285ZM498.614 178.38C497.727 180.505 497 182.72 497 183.302C497 184.399 493.482 195.811 491.93 199.75C491.05 201.983 491.112 202 500.089 202C508.997 202 509.125 201.966 508.482 199.75C507.022 194.72 503.649 184.198 501.992 179.508L500.229 174.516L498.614 178.38Z" fill="currentColor"/>
</svg>
