<svg width="960" height="169" viewBox="0 0 960 169" fill="none" xmlns="http://www.w3.org/2000/svg">
<path fill-rule="evenodd" clip-rule="evenodd" d="M583.564 76.8644V134.948H598.621L598.031 87.893C597.705 62.0127 597.9 40.8378 598.465 40.8378C599.029 40.8378 612.615 62.0112 628.656 87.89L657.823 134.942L664.808 134.945L671.793 134.948V18.7808H658.6L658.212 64.5845L657.823 110.388L629.378 64.5845L600.934 18.7808H583.564V76.8644ZM715.907 54.7735C689.058 63.4669 680.402 105.099 701.135 125.831C717.244 141.94 744.824 141.003 759.899 123.833C765.009 118.014 764.825 117.329 757.368 114.386C752.77 112.572 752.257 112.707 747.81 116.914C732.22 131.665 707.256 124.283 704.552 104.123L703.756 98.1863H766.315L765.44 90.4663C762.265 62.4582 740.534 46.7991 715.907 54.7735ZM918.191 54.1692C902.51 58.0733 894.299 72.5648 900.459 85.4652C903.577 91.9985 910.237 95.9629 925.051 100.102C945.596 105.844 951.297 111.973 943.42 119.851C935.519 127.752 919.525 125.862 911.456 116.073L907.142 110.841L901.959 113.313C895.931 116.186 895.853 116.508 899.665 122.758C914.335 146.819 960.022 139.461 959.999 113.041C959.989 100.005 952.615 93.3896 932.613 88.4723C915.59 84.2874 909.518 79.601 912.911 73.2632C917.953 63.8405 935.163 63.0508 943.951 71.8383C946.82 74.7072 947.684 74.8499 952.832 73.3088C959.58 71.2869 959.754 70.4502 954.673 64.4139C946.903 55.1794 931.503 50.8547 918.191 54.1692ZM772.454 59.5864C772.951 61.8112 778.502 79.5113 784.79 98.9215L796.223 134.213H810.374L819.784 104.896C828.939 76.3718 830.022 73.5015 831.139 74.7808C831.433 75.119 835.918 88.6282 841.107 104.803L850.54 134.213H864.979L877.202 96.0364C883.923 75.0396 889.423 57.3395 889.423 56.7013C889.423 56.0646 886.473 55.5426 882.867 55.5426H876.313L873.396 65.4683C871.792 70.9281 868.051 83.9962 865.083 94.5101C862.116 105.024 859.165 114.189 858.527 114.878C857.887 115.566 852.977 102.496 847.616 85.8358L837.867 55.5426H823.841L814.455 84.5844C809.291 100.558 804.588 114.194 804.003 114.886C803.009 116.064 799.993 107.139 792.401 80.5406C784.912 54.3 785.619 55.5426 778.167 55.5426C771.711 55.5426 771.573 55.6396 772.454 59.5864ZM716.642 68.5445C711.096 71.9354 709.191 74.247 706.361 81.0215L704.104 86.4225H751.517L750.523 82.3787C747.05 68.2548 729.102 60.926 716.642 68.5445Z" fill="currentColor"/>
<path fill-rule="evenodd" clip-rule="evenodd" d="M173.808 46.7803C153.887 50.7211 140.243 67.1816 140.356 87.133C140.647 138.435 213.452 145.887 223.341 95.6279C227.768 73.1194 213.478 51.4005 191.243 46.8464C182.595 45.0745 182.437 45.073 173.808 46.7803ZM489.89 46.7773C453.048 54.1488 447.251 108.764 481.531 125.536C496.08 132.653 516.309 130.475 526.951 120.644C535.872 112.402 535.899 112.155 528.44 107.023L521.641 102.345L518.047 106.223C510.496 114.371 500.182 116.259 490.04 111.349C484.804 108.814 477.783 101.67 479.41 100.533C479.678 100.348 491.806 95.3529 506.364 89.4342C537.287 76.8632 535.829 77.8337 533.653 71.2416C528.099 54.412 507.97 43.16 489.89 46.7773ZM171.843 64.6377C152.091 74.8163 153.398 104.352 173.949 112.2C200.547 122.358 219.104 84.0214 196.087 66.4655C188.838 60.9365 180.278 60.2924 171.843 64.6377ZM487.996 64.1524C479.8 68.5491 471.268 88.5887 478.793 85.7742C497.487 78.7821 514.452 70.9401 514.452 69.2902C514.452 62.679 497.047 59.2999 487.996 64.1524Z" fill="currentColor"/>
<path fill-rule="evenodd" clip-rule="evenodd" d="M269.388 46.7803C249.468 50.7211 235.823 67.1816 235.936 87.133C236.227 138.435 309.032 145.887 318.921 95.6279C323.348 73.1194 309.058 51.4005 286.823 46.8464C278.176 45.0745 278.017 45.073 269.388 46.7803ZM267.423 64.6377C247.671 74.8163 248.978 104.352 269.529 112.2C296.127 122.358 314.684 84.0214 291.667 66.4655C284.418 60.9365 275.858 60.2924 267.423 64.6377Z" fill="currentColor"/>
<path fill-rule="evenodd" clip-rule="evenodd" d="M424.754 65.836V130.537H442.4V1.13525H424.754V65.836Z" fill="currentColor"/>
<path fill-rule="evenodd" clip-rule="evenodd" d="M50.9203 1.85709C-16.7876 19.0278 -17.042 112.143 50.5703 129.753C91.4318 140.396 127.632 112.64 127.701 70.6149L127.719 59.954H65.9588V77.5997H109.763L108.622 82.3787C103.215 105.002 83.4398 117.195 59.0491 112.948C16.4436 105.528 4.4181 53.1339 39.2271 26.5831C54.273 15.1075 78.3608 15.4928 95.1948 27.4801L99.3033 30.4063L105.531 24.0612L111.757 17.7176L104.253 12.2092C89.3541 1.27184 68.8895 -2.6999 50.9203 1.85709ZM357.848 47.2021C341.293 53.6927 332.17 65.383 329.817 83.1198C325.572 115.123 361.155 142.011 385.704 125.352C392.855 120.498 392.868 120.507 392.092 129.862C390.21 152.553 363.053 160.074 350.463 141.392L347.481 136.966L340.165 139.889C336.142 141.498 332.635 142.967 332.373 143.155C331.023 144.127 337.104 152.753 342.916 158.111C359.461 173.36 387.672 171.51 400.787 154.314C408.614 144.052 409.061 140.945 409.677 92.672L410.243 48.1902H401.324C393.384 48.1902 392.404 48.5137 392.404 51.1312C392.404 54.6838 391.27 54.8323 387.838 51.7267C381.472 45.9669 366.69 43.7361 357.848 47.2021ZM364 63.5552C341.493 71.5825 342.778 106.655 365.806 112.856C388.063 118.849 402.638 88.0929 386.339 69.5282C379.966 62.27 372.899 60.3804 364 63.5552Z" fill="currentColor"/>
</svg>
