<svg width="1074" height="153" viewBox="0 0 1074 153" fill="none" xmlns="http://www.w3.org/2000/svg">
<path d="M259.95 63.9853L258.214 72.8798H257.911C255.59 67.7114 248.949 60.8302 234.779 60.8302C211.648 60.8302 188.223 78.6192 183.026 106.455C178.403 130.844 190.544 152.369 217.723 152.369C227.846 152.369 239.422 148.363 245.195 140.029H245.497L243.762 149.214H269.194L285.1 63.6948H259.95V63.9853ZM251.856 106.455C250.12 114.768 242.318 128.551 226.12 128.551C210.507 128.551 207.328 114.778 208.761 107.015C210.497 97.2595 219.459 84.9194 234.194 84.9194C248.656 84.9194 253.571 96.3981 251.835 106.455H251.856ZM299.855 63.9853H323.855L322.119 72.8798H322.422C325.601 68.8733 331.384 60.8302 346.421 60.8302L341.799 86.6723C329.658 86.9728 320.605 89.2565 318.667 102.458L309.705 149.535H283.465L299.855 63.9853ZM363.76 30.4106H389.798L377.657 94.9758H378.233L408.005 63.9853H438.363L398.75 101.577L421.59 149.505H392.382L375.609 108.177H375.407L367.595 149.505H341.86L363.76 30.4106ZM479.823 60.8302C453.784 60.8302 430.37 83.2167 426.03 107.036C421.408 132.277 438.464 152.379 463.332 152.379C472.582 152.337 481.624 149.645 489.37 144.627C497.464 139.749 504.983 132.287 511.069 122.821H484.758C480.418 127.409 475.503 130.854 467.399 130.854C457.276 130.854 450.04 124.824 450.242 114.788H514.833C515.701 112.785 515.994 111.343 516.569 108.177C521.484 81.7743 506.164 60.8302 479.823 60.8302ZM453.784 97.2896C455.803 92.1212 462.746 82.6658 476.341 82.6658C489.643 82.6658 493.114 92.1312 493.114 97.2896H453.784ZM144.876 149.505H170.612V30.3104H148.631L102.942 98.0208H102.64V30.3104H80.6685L0 149.505H31.2259L76.6215 81.7943H76.9242V149.505H99.188L144.301 81.7943H144.876V149.505ZM582.079 63.9853H565.891L570.513 38.7442H547.956L546.22 48.5001C544.202 59.6883 537.258 63.1239 527.711 63.9953H527.408L523.371 83.2267H536.088L523.654 149.334H549.389L561.823 83.2267H578.304L582.079 63.9853Z" fill="currentColor"/>
<path d="M981.096 117.091C972.719 136.603 952.474 152.389 929.342 152.389C903.304 152.389 886.833 132.016 891.748 106.474C896.37 81.233 919.805 60.8498 945.823 60.8498C968.662 60.8498 984.174 76.0546 984.578 96.9086H958.539C956.803 90.8788 953.049 84.8589 942.058 84.8589C929.917 84.288 919.794 94.3244 917.483 106.394C915.162 118.734 921.52 128.2 933.964 128.2C944.662 128.2 951.121 122.17 954.785 116.721H981.096V117.091ZM767.137 0.000610352L717.119 30.4202H731.289L685.893 98.1306H685.318V30.4202H663.044L617.628 98.1406H617.326V30.4302H591.287V149.625H613.844L659.239 81.9141H659.542V149.625H681.806L762.192 30.4302H774.908L767.137 0.000610352ZM816.287 149.514H790.854L792.59 140.329H792.287C786.212 148.643 774.928 152.669 764.816 152.669C737.344 152.669 725.496 131.134 730.118 106.755C735.326 78.9092 759.033 61.1303 781.872 61.1303C796.042 61.1303 802.692 68.0215 805.004 73.1799H805.306L807.042 64.2854H832.475L816.287 149.514ZM772.91 128.58C788.815 128.58 796.909 114.808 798.645 106.484C800.381 96.1674 795.466 84.9491 781.004 84.9491C766.269 84.9491 757.287 97.2892 755.571 107.045C753.835 115.078 757.307 128.58 772.93 128.58H772.91ZM896.945 64.015H880.757L885.379 38.7738H862.823L861.087 48.5297C859.069 59.718 852.125 63.1536 842.578 64.025H842.275L838.52 83.2563H851.237L838.803 149.364H864.539L876.972 83.2563H893.453L896.945 64.015ZM1005.38 30.4402H1031.11L1023.3 72.9095H1023.6C1029.1 64.8764 1036.62 60.8598 1047.9 60.8598C1055.99 60.8598 1065.26 64.015 1069.6 70.3252C1075.09 78.6388 1074.51 86.111 1071.61 101.606L1062.65 149.244H1036.92L1045.6 102.768C1046.46 98.7616 1048.78 84.6887 1035.2 84.6887C1020.74 84.6887 1018.43 97.6097 1017.56 101.917L1008.6 149.264H983.165L1005.38 30.4402Z" fill="currentColor"/>
</svg>
