<svg width="779" height="144" viewBox="0 0 779 144" fill="none" xmlns="http://www.w3.org/2000/svg">
<g clip-path="url(#clip0_3938_12195)">
<path d="M0 0H27.993L73.3189 62.3343L117.512 0H145.505V143.81H116.588V51.1687L74.62 107.123H70.8848L28.9163 49.0279V143.81H0V0Z" fill="currentColor"/>
<path d="M170.141 0H263.604V26.0671H199.057V58.7663H259.869V84.8334H199.057V117.826H263.604V143.894H170.141V0Z" fill="currentColor"/>
<path d="M280.014 0H302.173L364.874 85.505V0H393.79V143.81H371.421L308.93 56.3737V143.81H280.014V0Z" fill="currentColor"/>
<path d="M455.19 0H493.591L540.638 143.81H509.078L499.761 114.426H449.063L439.704 143.81H408.186L455.19 0ZM491.745 88.4013L474.244 32.9931L456.701 88.4013H491.745Z" fill="currentColor"/>
<path d="M554.992 0H650.135V26.0671H583.908V62.5442H640.818V88.6112H583.908V143.81H554.992V0Z" fill="currentColor"/>
<path d="M664.486 0H686.688L749.389 85.505V0H778.263V143.81H755.894L693.403 56.3737V143.81H664.486V0Z" fill="currentColor"/>
</g>
<defs>
<clipPath id="clip0_3938_12195">
<rect width="778.264" height="143.81" fill="currentColor"/>
</clipPath>
</defs>
</svg>
