<svg width="841" height="188" viewBox="0 0 841 188" fill="none" xmlns="http://www.w3.org/2000/svg">
<path d="M464.702 5.28931H448.596V182.316H464.702V5.28931Z" fill="currentColor"/>
<path d="M670.398 5.28931H721.779V20.0449H704.302V182.316H688.129V20.0449H670.398V5.28931Z" fill="currentColor"/>
<path d="M433.872 5.28931V182.316H417.004L392.888 74.8084V182.316H377.062V5.28931H391.618L418.047 122.565V5.28931H433.872Z" fill="currentColor"/>
<path d="M83.673 5.28931V182.316H67.8477V30.5751L48.3184 182.316H35.1407L15.9256 30.5751V182.316H0V5.28931H26.9438L42.3747 112.015L56.923 5.28931H83.673Z" fill="currentColor"/>
<path d="M279.824 182.369C291.043 167.106 297.812 149.031 299.377 130.153C300.942 111.274 297.243 92.3316 288.69 75.4292C280.137 58.5268 267.065 44.3266 250.927 34.4063C234.789 24.486 216.217 19.2341 197.274 19.2341C178.331 19.2341 159.758 24.486 143.62 34.4063C127.482 44.3266 114.411 58.5268 105.858 75.4292C97.3049 92.3316 93.6055 111.274 95.1707 130.153C96.7358 149.031 103.504 167.106 114.724 182.369H136.032C124.054 170.274 115.923 154.905 112.663 138.198C109.403 121.491 111.16 104.192 117.713 88.4817C124.265 72.7711 135.32 59.3507 149.485 49.9109C163.65 40.4711 180.292 35.434 197.314 35.434C214.336 35.434 230.978 40.4711 245.143 49.9109C259.308 59.3507 270.363 72.7711 276.915 88.4817C283.468 104.192 285.225 121.491 281.965 138.198C278.705 154.905 270.574 170.274 258.596 182.369H279.824Z" fill="currentColor"/>
<path d="M780.078 182.315H764.333L760.168 142.441H736.607L732.796 182.315H716.75L734.862 5.30151H759.426L780.078 182.315ZM758.683 126.455L747.986 28.8423L738.105 126.455H758.697H758.683Z" fill="currentColor"/>
<path d="M587.711 159.832C587.981 161.307 587.923 162.823 587.542 164.273C587.161 165.723 586.466 167.071 585.506 168.223C584.546 169.375 583.344 170.301 581.987 170.937C580.629 171.573 579.148 171.903 577.649 171.903C576.149 171.903 574.668 171.573 573.31 170.937C571.953 170.301 570.751 169.375 569.791 168.223C568.831 167.071 568.136 165.723 567.755 164.273C567.374 162.823 567.316 161.307 567.586 159.832V26.1154C567.316 24.6405 567.374 23.1244 567.755 21.6743C568.136 20.2242 568.831 18.8756 569.791 17.7239C570.751 16.5723 571.953 15.6457 573.31 15.0099C574.668 14.374 576.149 14.0444 577.649 14.0444C579.148 14.0444 580.629 14.374 581.987 15.0099C583.344 15.6457 584.546 16.5723 585.506 17.7239C586.466 18.8756 587.161 20.2242 587.542 21.6743C587.923 23.1244 587.981 24.6405 587.711 26.1154L587.671 32.507V65.8826H603.864V40.1623V32.721C603.75 10.6578 595.119 0.134277 577.12 0.134277C561.074 0.134277 550.645 11.5002 550.645 28.9769V35.4755V146.286V153.46C550.645 176.145 559.443 187.203 577.501 187.203C595.56 187.203 603.89 176.346 603.89 152.992V88.5876H574.105V104.092H587.644V153.962L587.711 159.832Z" fill="currentColor"/>
<path d="M654.058 155.592V109.567L617.172 81.9949V30.5542C617.172 10.3363 626.271 0 644.082 0C662.181 0 670.411 10.256 670.511 32.9878L670.558 40.0414V66.1428H654.058V31.1358L654.024 26.1215C654.305 24.6547 654.258 23.1441 653.887 21.6975C653.516 20.2509 652.83 18.9041 651.879 17.7532C650.927 16.6024 649.733 15.6758 648.382 15.0398C647.031 14.4038 645.556 14.0741 644.062 14.0741C642.569 14.0741 641.094 14.4038 639.743 15.0398C638.392 15.6758 637.198 16.6024 636.246 17.7532C635.294 18.9041 634.609 20.2509 634.238 21.6975C633.867 23.1441 633.82 24.6547 634.1 26.1215V74.2995L670.551 101.838V155.064C670.551 175.87 661.285 187.016 643.975 187.016C626.438 187.016 617.319 176.512 617.232 156.214V149.214V114.568H634.107V159.838C633.827 161.305 633.873 162.815 634.244 164.262C634.615 165.708 635.301 167.055 636.253 168.206C637.204 169.357 638.398 170.283 639.749 170.919C641.101 171.555 642.576 171.885 644.069 171.885C645.562 171.885 647.037 171.555 648.388 170.919C649.74 170.283 650.934 169.357 651.885 168.206C652.837 167.055 653.523 165.708 653.894 164.262C654.264 162.815 654.311 161.305 654.031 159.838L654.058 155.592Z" fill="currentColor"/>
<path d="M367.286 182.315H351.146C348.912 176.223 347.802 169.776 347.87 163.287L347.736 154.235L347.69 149.635V115.076C347.863 113.737 347.744 112.377 347.342 111.088C346.94 109.799 346.264 108.613 345.36 107.61C344.456 106.607 343.346 105.812 342.106 105.278C340.866 104.745 339.525 104.486 338.176 104.519H326.656V182.315H310.857V5.30151H331.476C354.636 5.30151 363.568 13.7724 363.568 36.4173V69.6659C363.568 84.5619 361.081 90.8064 349.421 95.1054C349.588 95.1522 349.749 95.2258 349.909 95.2726C360.921 98.4817 363.388 102.627 363.515 116.627L363.568 123.059V155.365C363.189 164.498 364.448 173.626 367.286 182.315ZM326.656 19.2281V89.3355H332.312C334.374 89.6972 336.493 89.5644 338.493 88.9481C340.494 88.3318 342.32 87.2495 343.821 85.7902C345.322 84.3309 346.455 82.5363 347.128 80.5538C347.8 78.5713 347.993 76.4574 347.69 74.3861V38.2827C347.69 23.7477 344.347 19.2013 333.569 19.2013H326.656V19.2281Z" fill="currentColor"/>
<path d="M840.712 182.315H824.559C822.324 176.223 821.217 169.776 821.29 163.287L821.156 154.235L821.096 149.642V115.076C821.269 113.738 821.151 112.378 820.749 111.09C820.347 109.801 819.672 108.615 818.769 107.613C817.866 106.61 816.756 105.814 815.517 105.28C814.278 104.746 812.938 104.487 811.589 104.519H800.083V182.315H784.277V5.30151H804.903C828.063 5.30151 836.995 13.7724 836.995 36.4173V69.6659C836.995 84.5619 834.501 90.8064 822.868 95.1054C823.022 95.1522 823.182 95.2258 823.356 95.2726C834.361 98.4817 836.835 102.627 836.962 116.627L837.002 123.059V155.365C836.617 164.498 837.873 173.626 840.712 182.315ZM800.083 19.2281V89.3355H805.759C807.818 89.69 809.932 89.5518 811.927 88.9322C813.922 88.3127 815.743 87.2294 817.239 85.771C818.735 84.3127 819.865 82.5207 820.535 80.5419C821.205 78.563 821.398 76.4535 821.096 74.3861V38.2827C821.096 23.7477 817.753 19.2013 806.976 19.2013H800.083V19.2281Z" fill="currentColor"/>
<path d="M535.98 5.28931V182.316H519.119L495.003 74.8084V182.316H479.178V5.28931H493.733L520.155 122.565V5.28931H535.98Z" fill="currentColor"/>
</svg>
