<svg width="799" height="195" viewBox="0 0 799 195" fill="none" xmlns="http://www.w3.org/2000/svg">
<path fill-rule="evenodd" clip-rule="evenodd" d="M71.8975 6.61403C45.1175 20.751 5.97445 44.032 2.46445 47.911C0.919451 49.619 0.669449 53.398 0.172449 82.656C-0.366551 114.313 0.41245 145.035 1.75145 144.938C2.10645 144.913 16.3475 124.897 33.3974 100.459L64.3975 56.027L82.1275 56.006L99.8575 55.985L100.127 77.155L100.397 98.325L122.897 65.958C135.272 48.156 145.531 33.278 145.694 32.896C146.317 31.44 89.0195 -0.0339725 85.8095 2.75265e-05C85.0325 0.00802753 78.7725 2.98503 71.8975 6.61403ZM164.351 56.985C161.029 61.66 146.893 81.808 132.939 101.757L107.567 138.03L89.9825 137.757L72.3975 137.485L71.8975 116.863L71.3975 96.241L49.3974 127.816C37.2974 145.181 27.2724 159.869 27.1194 160.455C26.8894 161.332 52.6825 176.158 80.4465 191.106L86.4955 194.363L100.946 186.817C123.989 174.784 158.483 154.594 168.432 147.316L171.397 145.147L171.68 104.316C171.836 81.859 171.61 60.11 171.177 55.985L170.391 48.485L164.351 56.985ZM523.817 58.035C508.499 60.496 500.156 73.092 505.45 85.767C508.579 93.259 511.421 95.022 531.848 102.149C540.996 105.34 544.897 109.004 544.897 114.402C544.897 125.089 530.662 128.672 514.987 121.929C512.296 120.771 509.071 118.735 507.821 117.404C504.737 114.121 504.205 114.298 501.71 119.434L499.548 123.882L501.973 125.882C523.289 143.466 556.853 136.19 556.853 113.985C556.853 102.959 551.718 97.95 533.771 91.467C519.645 86.365 515.897 83.42 515.897 77.424C515.897 67.966 530.359 64.929 544.521 71.413C547.611 72.828 550.485 73.985 550.909 73.985C551.661 73.985 554.897 66.777 554.897 65.101C554.897 63.636 543.339 59.002 538.266 58.433C535.588 58.133 532.272 57.755 530.897 57.593C529.522 57.431 526.336 57.63 523.817 58.035ZM762.677 57.974C741.431 61.739 728.478 80.199 731.12 102.948C734.385 131.06 766.928 145.081 791.676 129.039C800.438 123.359 800.451 123.314 795.041 117.147L790.358 111.81L785.161 115.307C767.96 126.883 747.846 116.746 747.919 96.539C747.996 75.242 770.493 64.687 785.982 78.681C788.225 80.707 790.33 81.899 790.77 81.391C800.372 70.311 800.438 69.652 792.473 64.244C784.514 58.842 772.295 56.27 762.677 57.974ZM232.897 96.485V134.985H243.867L244.132 105.955L244.397 76.926L254.988 91.705C260.813 99.834 270.195 112.897 275.836 120.735L286.094 134.985H296.897V57.985H286.927L286.662 87.697L286.397 117.409L276.346 103.447C270.818 95.768 261.186 82.397 254.94 73.735L243.585 57.985H232.897V96.485ZM316.897 96.468V134.985H371.007L370.702 130.235L370.397 125.485L349.147 125.215L327.897 124.945V100.985H364.897V90.985H327.897V67.985H370.007L369.702 63.235L369.397 58.485L343.147 58.218L316.897 57.952V96.468ZM382.897 59.206C382.897 59.878 388.389 77.203 395.102 97.706L407.307 134.985H418.479L427.938 104.487C433.14 87.713 437.625 73.988 437.905 73.987C438.315 73.985 449.278 108.755 455.654 130.282L457.075 135.079L462.677 134.782L468.279 134.485L480.586 97.485C487.354 77.135 492.893 59.899 492.895 59.183C492.896 58.242 491.463 57.964 487.729 58.183L482.562 58.485L472.821 90.485C467.463 108.085 462.81 121.81 462.481 120.985C462.152 120.16 457.708 105.76 452.605 88.985L443.326 58.485H432.662L423.098 90.254C417.838 107.727 413.248 121.677 412.897 121.254C412.546 120.831 408.279 107.21 403.415 90.985C398.551 74.76 394.179 60.698 393.699 59.735C392.642 57.615 382.897 57.138 382.897 59.206ZM591.897 96.985V134.985H612.715C635.485 134.985 641.461 134.01 647.732 129.273C659.329 120.512 657.525 101.807 644.513 95.898C642.249 94.87 640.958 94.019 641.644 94.007C642.33 93.995 644.688 92.362 646.885 90.377C654.311 83.668 654.792 72.88 647.968 66.056C641.719 59.807 637.678 58.985 613.219 58.985H591.897V96.985ZM663.897 65.985V72.985H686.897V134.985H702.868L703.133 104.235L703.397 73.485L714.647 73.202L725.897 72.919V58.985H663.897V65.985ZM608.897 80.985V88.985L619.647 88.953C626.516 88.933 630.97 88.482 631.984 87.703C634.673 85.639 636.068 82.039 635.384 78.928C634.293 73.959 631.718 72.985 619.674 72.985H608.897V80.985ZM608.897 111.985V120.985H618.929C633.332 120.985 637.897 118.616 637.897 111.14C637.897 109.043 636.987 107.397 634.82 105.574C631.903 103.119 631.151 102.985 620.32 102.985H608.897V111.985Z" fill="currentColor"/>
</svg>
