<svg width="1082" height="271" viewBox="0 0 1082 271" fill="none" xmlns="http://www.w3.org/2000/svg">
<g clip-path="url(#clip0_3938_12206)">
<path d="M276.836 163.928C271.814 163.928 267.211 166.418 264.7 170.568C262.189 174.718 262.189 180.113 264.7 184.263C267.211 188.413 271.814 191.111 276.836 190.903C284.369 190.696 290.227 184.678 290.227 177.416C290.437 170.153 284.369 164.135 276.836 163.928Z" fill="currentColor"/>
<path d="M259.468 199.206C252.981 199.206 247.75 204.393 247.75 210.618C247.75 217.051 252.981 222.238 259.468 222.238C265.954 222.238 271.185 217.051 271.185 210.618C271.185 204.393 265.954 199.206 259.468 199.206Z" fill="currentColor"/>
<path d="M234.048 246.706C239.592 246.523 243.936 241.918 243.751 236.42C243.567 230.923 238.923 226.614 233.379 226.797C227.836 226.981 223.491 231.586 223.676 237.083C223.861 242.581 228.504 246.889 234.048 246.706Z" fill="currentColor"/>
<path d="M204.641 245.479C200.038 245.479 196.48 249.007 196.48 253.572C196.48 258.137 200.038 261.665 204.641 261.665C209.244 261.665 212.801 258.137 212.801 253.572C212.801 249.007 209.244 245.479 204.641 245.479Z" fill="currentColor"/>
<path d="M176.182 255.23C172.416 255.23 169.277 258.343 169.277 262.078C169.277 265.813 172.416 268.925 176.182 268.925C179.949 268.925 183.087 265.813 183.087 262.078C183.297 258.343 180.158 255.23 176.182 255.23Z" fill="currentColor"/>
<path d="M149.613 259.174C146.265 259.174 143.545 261.872 143.545 265.192C143.545 268.512 146.265 271.209 149.613 271.209C152.961 271.209 155.681 268.512 155.681 265.192C155.472 261.872 152.752 259.174 149.613 259.174Z" fill="currentColor"/>
<path d="M122.837 255.23C119.07 255.23 115.932 258.343 115.932 262.078C115.932 265.813 119.07 268.925 122.837 268.925C126.603 268.925 129.742 265.813 129.742 262.078C129.742 258.343 126.603 255.23 122.837 255.23Z" fill="currentColor"/>
<path d="M94.3632 245.272C91.4338 245.272 88.7136 246.725 87.2489 249.215C85.7842 251.705 85.7842 254.817 87.2489 257.307C88.7136 259.797 91.4338 261.25 94.3632 261.25C98.7573 261.25 102.524 257.722 102.524 253.157C102.314 249.007 98.7573 245.48 94.3632 245.272Z" fill="currentColor"/>
<path d="M65.2846 226.802C61.7275 226.802 58.3796 228.67 56.4964 231.782C54.6132 234.895 54.6132 238.63 56.4964 241.743C58.3796 244.855 61.5182 246.723 65.2846 246.723C70.725 246.723 75.3283 242.365 75.3283 236.762C75.3283 231.367 70.9342 226.802 65.2846 226.802Z" fill="currentColor"/>
<path d="M39.5516 199.206C33.0651 199.206 27.834 204.393 27.834 210.826C27.834 217.258 33.0651 222.446 39.5516 222.446C46.0382 222.446 51.2693 217.258 51.2693 210.826C51.0601 204.393 46.0382 199.206 39.5516 199.206Z" fill="currentColor"/>
<path d="M22.1834 163.929C17.1615 163.722 12.5582 166.419 10.0473 170.57C7.53633 174.72 7.53633 180.115 10.0473 184.265C12.5582 188.415 17.1615 191.112 22.1834 190.905C29.7162 190.697 35.575 184.68 35.575 177.417C35.575 170.155 29.5069 164.137 22.1834 163.929Z" fill="currentColor"/>
<path d="M15.9006 119.938C7.11234 119.938 -0.00195312 126.993 -0.00195312 135.708C-0.00195312 144.423 7.11234 151.479 15.9006 151.479C24.6888 151.479 31.8031 144.423 31.8031 135.708C31.5939 126.993 24.6888 119.938 15.9006 119.938Z" fill="currentColor"/>
<path d="M22.1834 80.0972C17.1615 80.0972 12.5582 82.5872 10.0473 86.7373C7.53633 90.8874 7.53633 96.2825 10.0473 100.433C12.5582 104.583 17.1615 107.28 22.1834 107.073C29.7162 106.865 35.575 100.848 35.575 93.5849C35.575 86.3223 29.5069 80.3047 22.1834 80.0972Z" fill="currentColor"/>
<path d="M39.5488 48.7661C35.364 48.7661 31.3883 50.8412 29.2959 54.5762C27.2035 58.1038 27.2035 62.6689 29.2959 66.1964C31.3883 69.724 35.364 72.0065 39.5488 72.0065C45.8262 71.799 51.0573 66.8189 51.0573 60.3863C50.848 54.1612 45.8262 48.9736 39.5488 48.7661Z" fill="currentColor"/>
<path d="M65.2839 24.2798C59.8436 24.2798 55.2402 28.6374 55.2402 34.24C55.2402 39.6351 59.6344 44.2002 65.2839 44.2002C70.7243 44.2002 75.3276 39.8426 75.3276 34.24C75.3276 28.8449 70.9335 24.2798 65.2839 24.2798Z" fill="currentColor"/>
<path d="M94.3793 9.54663C89.9851 9.54663 86.2188 13.0742 86.2188 17.6393C86.2188 21.9969 89.7759 25.7319 94.3793 25.7319C98.7734 25.7319 102.54 22.2044 102.54 17.6393C102.331 13.2817 98.7734 9.54663 94.3793 9.54663Z" fill="currentColor"/>
<path d="M122.833 2.07788C118.857 2.07788 115.719 5.19044 115.719 9.13301C115.719 13.0756 118.857 16.1881 122.833 16.1881C126.599 16.1881 129.738 13.0756 129.738 9.34052C129.529 5.19044 126.599 2.07788 122.833 2.07788Z" fill="currentColor"/>
<path d="M149.408 0.000976562C146.06 0.000976562 143.34 2.69853 143.34 6.01859C143.34 9.33865 146.06 12.0362 149.408 12.0362C152.756 12.0362 155.476 9.33865 155.476 6.01859C155.476 2.69853 152.756 0.000976562 149.408 0.000976562Z" fill="currentColor"/>
<path d="M176.182 2.07788C172.416 2.07788 169.277 5.19044 169.277 8.92551C169.277 12.6606 172.416 15.7731 176.182 15.7731C179.949 15.7731 183.087 12.6606 183.087 8.92551C183.297 5.19044 180.158 2.07788 176.182 2.07788Z" fill="currentColor"/>
<path d="M204.644 9.54663C201.715 9.54663 198.995 10.9992 197.53 13.4892C196.065 15.9792 196.065 19.0918 197.53 21.5819C198.995 24.0719 201.715 25.5244 204.644 25.5244C209.039 25.5244 212.805 21.9969 212.805 17.4318C212.805 12.8667 209.248 9.54663 204.644 9.54663Z" fill="currentColor"/>
<path d="M233.735 24.4846C228.295 24.4846 223.691 28.8422 223.691 34.4448C223.691 39.8399 228.086 44.405 233.735 44.405C239.175 44.405 243.779 40.0474 243.779 34.4448C243.779 28.8422 239.175 24.4846 233.735 24.4846Z" fill="currentColor"/>
<path d="M259.468 48.7661C252.981 48.7661 247.75 53.9537 247.75 60.3863C247.75 66.8189 252.981 72.0065 259.468 72.0065C265.954 72.0065 271.185 66.8189 271.185 60.3863C271.185 53.9537 265.954 48.7661 259.468 48.7661Z" fill="currentColor"/>
<path d="M276.836 80.0972C271.814 80.0972 267.211 82.5872 264.7 86.7373C262.189 90.8874 262.189 96.2825 264.7 100.433C267.211 104.583 271.814 107.28 276.836 107.073C284.369 106.865 290.227 100.848 290.227 93.5849C290.227 86.1148 284.369 80.0972 276.836 80.0972Z" fill="currentColor"/>
<path d="M214.053 156.249C211.751 156.249 209.659 157.287 208.613 159.154C207.567 161.022 207.567 163.512 208.613 165.379C209.659 167.247 211.751 168.492 214.053 168.284C217.401 168.077 219.912 165.379 219.912 162.267C220.121 159.154 217.401 156.457 214.053 156.249Z" fill="currentColor"/>
<path d="M198.782 178.871C196.48 178.871 194.388 179.908 193.341 181.776C192.295 183.643 192.295 186.133 193.341 188.001C194.388 189.868 196.689 191.113 198.782 190.906C202.13 190.698 204.64 188.001 204.64 184.888C204.64 181.776 202.13 179.078 198.782 178.871Z" fill="currentColor"/>
<path d="M175.98 193.394C173.678 193.394 171.377 194.639 170.121 196.714C168.866 198.789 168.866 201.279 170.121 203.354C171.377 205.43 173.469 206.675 175.98 206.675C179.746 206.675 182.676 203.769 182.676 200.034C182.676 196.299 179.746 193.394 175.98 193.394Z" fill="currentColor"/>
<path d="M149.193 197.338C144.171 197.338 140.195 201.281 140.195 206.261C140.195 211.241 144.171 215.184 149.193 215.184C154.215 215.184 158.19 211.241 158.19 206.261C157.981 201.281 154.005 197.338 149.193 197.338Z" fill="currentColor"/>
<path d="M122.204 191.944C116.555 191.944 111.951 196.509 111.951 202.112C111.951 207.714 116.555 212.279 122.204 212.279C127.854 212.279 132.457 207.714 132.457 202.112C132.457 196.509 127.854 191.944 122.204 191.944Z" fill="currentColor"/>
<path d="M97.9359 174.927C91.6586 174.927 86.6367 179.907 86.6367 186.132C86.6367 192.357 91.6586 197.337 97.9359 197.337C104.213 197.337 109.235 192.357 109.235 186.132C109.235 179.907 104.213 174.927 97.9359 174.927Z" fill="currentColor"/>
<path d="M81.8144 152.1C76.5833 152.1 72.3984 156.25 72.3984 161.438C72.3984 166.626 76.5833 170.776 81.8144 170.776C87.0455 170.776 91.2304 166.626 91.2304 161.438C91.4396 156.458 87.0455 152.1 81.8144 152.1Z" fill="currentColor"/>
<path d="M78.0481 127.202C74.0725 127.202 70.7246 130.522 70.7246 134.465C70.7246 138.408 74.0725 141.728 78.0481 141.728C82.0238 141.728 85.3717 138.408 85.3717 134.465C85.3717 130.315 82.233 127.202 78.0481 127.202Z" fill="currentColor"/>
<path d="M84.5407 102.714C81.1928 102.714 78.4727 105.411 78.4727 108.731C78.4727 112.051 81.1928 114.749 84.5407 114.749C87.8886 114.749 90.6088 112.051 90.6088 108.731C90.818 105.411 87.8886 102.714 84.5407 102.714Z" fill="currentColor"/>
<path d="M100.016 80.3069C97.7143 80.3069 95.6219 81.3444 94.5757 83.2119C93.5295 85.0795 93.5295 87.5695 94.5757 89.437C95.6219 91.3046 97.9236 92.5496 100.016 92.3421C103.364 92.3421 106.084 89.6446 106.084 86.3245C105.875 83.0044 103.155 80.3069 100.016 80.3069Z" fill="currentColor"/>
<path d="M122.627 64.5352C118.861 64.5352 115.932 67.4402 115.932 71.1753C115.932 74.9103 118.861 77.8154 122.627 77.8154C126.394 77.8154 129.323 74.9103 129.323 71.1753C129.323 67.6477 126.394 64.5352 122.627 64.5352Z" fill="currentColor"/>
<path d="M158.562 65.184C158.753 60.2595 154.882 56.1142 149.916 55.9251C144.95 55.736 140.77 59.5747 140.58 64.4991C140.389 69.4235 144.26 73.5688 149.226 73.758C154.191 73.9471 158.371 70.1084 158.562 65.184Z" fill="currentColor"/>
<path d="M176.396 58.9312C170.746 58.9312 166.143 63.4962 166.143 69.0988C166.143 74.7014 170.746 79.2665 176.396 79.2665C182.045 79.2665 186.648 74.7014 186.648 69.0988C186.648 63.4962 182.045 58.9312 176.396 58.9312Z" fill="currentColor"/>
<path d="M200.674 73.8713C194.397 73.8713 189.375 78.8514 189.375 85.0765C189.375 91.3017 194.397 96.2818 200.674 96.2818C206.951 96.2818 211.973 91.3017 211.973 85.0765C211.973 78.8514 206.951 73.8713 200.674 73.8713Z" fill="currentColor"/>
<path d="M216.787 100.225C211.556 100.225 207.371 104.375 207.371 109.563C207.371 114.75 211.556 118.9 216.787 118.9C222.018 118.9 226.203 114.75 226.203 109.563C226.203 104.375 222.018 100.225 216.787 100.225Z" fill="currentColor"/>
<path d="M192.085 152.724C195.205 152.724 197.735 150.215 197.735 147.121C197.735 144.027 195.205 141.519 192.085 141.519C188.965 141.519 186.436 144.027 186.436 147.121C186.436 150.215 188.965 152.724 192.085 152.724Z" fill="currentColor"/>
<path d="M181.005 158.948C176.401 158.948 172.635 162.683 172.635 167.248C172.635 171.813 176.401 175.548 181.005 175.548C185.608 175.548 189.374 171.813 189.374 167.248C189.584 162.683 185.817 158.948 181.005 158.948Z" fill="currentColor"/>
<path d="M159.446 170.154C154.634 170.154 150.658 174.096 150.658 178.869C150.658 183.641 154.634 187.584 159.446 187.584C164.259 187.584 168.235 183.641 168.235 178.869C168.235 174.096 164.259 170.154 159.446 170.154Z" fill="currentColor"/>
<path d="M133.917 169.532C131.197 169.532 128.477 170.985 127.222 173.475C125.757 175.965 125.757 178.87 127.222 181.152C128.686 183.642 131.197 185.095 133.917 185.095C138.312 185.095 141.659 181.567 141.659 177.417C141.869 173.06 138.312 169.532 133.917 169.532Z" fill="currentColor"/>
<path d="M115.081 156.873C111.943 156.873 109.432 159.363 109.432 162.476C109.432 165.588 111.943 168.078 115.081 168.078C118.22 168.078 120.731 165.588 120.731 162.476C120.94 159.571 118.22 156.873 115.081 156.873Z" fill="currentColor"/>
<path d="M107.562 140.483C105.26 140.483 103.377 142.35 103.377 144.633C103.377 146.915 105.26 148.783 107.562 148.783C109.864 148.783 111.747 146.915 111.747 144.633C111.747 142.35 109.864 140.483 107.562 140.483Z" fill="currentColor"/>
<path d="M107.14 119.109C104.001 119.109 101.49 121.599 101.49 124.712C101.49 127.825 104.001 130.315 107.14 130.315C110.278 130.315 112.789 127.825 112.789 124.712C112.789 121.599 110.278 119.109 107.14 119.109Z" fill="currentColor"/>
<path d="M118.219 96.0759C113.616 96.0759 109.85 99.811 109.85 104.376C109.85 108.941 113.616 112.676 118.219 112.676C122.823 112.676 126.589 108.941 126.589 104.376C126.589 99.811 122.823 96.0759 118.219 96.0759Z" fill="currentColor"/>
<path d="M139.777 84.0388C134.964 84.0388 130.988 87.9814 130.988 92.754C130.988 97.5266 134.964 101.469 139.777 101.469C144.589 101.469 148.565 97.5266 148.565 92.754C148.565 87.9814 144.589 84.0388 139.777 84.0388Z" fill="currentColor"/>
<path d="M165.31 86.7373C162.381 86.7373 159.87 88.1898 158.405 90.4724C156.94 92.9624 156.94 95.8675 158.405 98.3575C159.87 100.848 162.59 102.3 165.31 102.093C169.495 101.885 172.843 98.565 172.843 94.4149C172.843 90.2649 169.495 86.9448 165.31 86.7373Z" fill="currentColor"/>
<path d="M183.929 103.338C180.79 103.338 178.279 105.828 178.279 108.94C178.279 112.053 180.79 114.543 183.929 114.543C187.068 114.543 189.578 112.053 189.578 108.94C189.788 105.828 187.277 103.338 183.929 103.338Z" fill="currentColor"/>
<path d="M191.886 123.051C189.584 123.051 187.701 124.919 187.701 127.201C187.701 129.484 189.584 131.351 191.886 131.351C194.188 131.351 196.071 129.484 196.071 127.201C196.071 124.919 194.188 123.051 191.886 123.051Z" fill="currentColor"/>
<path d="M220.552 129.484C216.576 129.484 213.229 132.804 213.229 136.747C213.229 140.689 216.576 144.009 220.552 144.009C224.528 144.009 227.876 140.689 227.876 136.747C227.876 132.804 224.528 129.484 220.552 129.484Z" fill="currentColor"/>
<path d="M250.889 138.406C246.494 138.406 243.146 141.933 243.146 146.083C243.146 150.441 246.704 153.761 250.889 153.761C255.283 153.761 258.631 150.233 258.631 146.083C258.631 141.933 255.283 138.406 250.889 138.406Z" fill="currentColor"/>
<path d="M243.142 165.59C239.166 165.59 235.818 168.91 235.818 172.853C235.818 176.796 239.166 180.116 243.142 180.116C247.118 180.116 250.465 176.796 250.465 172.853C250.465 168.91 247.327 165.59 243.142 165.59Z" fill="currentColor"/>
<path d="M229.969 188.414C226.621 188.414 223.691 191.112 223.691 194.639C223.691 197.959 226.412 200.864 229.969 200.864C233.317 200.864 236.037 197.959 236.037 194.639C236.037 191.319 233.317 188.622 229.969 188.414Z" fill="currentColor"/>
<path d="M214.068 205.429C212.185 205.429 210.302 206.466 209.255 208.127C208.209 209.787 208.209 211.862 209.255 213.522C210.302 215.182 211.976 216.219 214.068 216.219C216.997 216.219 219.508 213.937 219.508 210.824C219.508 207.919 216.997 205.429 214.068 205.429Z" fill="currentColor"/>
<path d="M197.326 217.88C194.815 217.88 192.723 219.955 192.723 222.445C192.723 224.935 194.815 227.011 197.326 227.011C199.837 227.011 201.929 224.935 201.929 222.445C201.929 219.955 199.837 217.88 197.326 217.88Z" fill="currentColor"/>
<path d="M178.28 224.937C175.351 224.937 172.84 227.22 172.84 230.332C172.84 233.237 175.142 235.727 178.28 235.727C181.21 235.727 183.721 233.445 183.721 230.332C183.511 227.22 181.21 224.937 178.28 224.937Z" fill="currentColor"/>
<path d="M155.885 228.462C152.537 228.462 149.607 231.16 149.607 234.687C149.607 238.007 152.328 240.912 155.885 240.912C159.233 240.912 162.162 238.215 162.162 234.687C161.953 231.16 159.233 228.462 155.885 228.462Z" fill="currentColor"/>
<path d="M130.365 225.971C125.971 225.971 122.414 229.499 122.414 233.856C122.414 238.214 125.971 241.741 130.365 241.741C134.759 241.741 138.317 238.214 138.317 233.856C138.317 229.499 134.759 225.971 130.365 225.971Z" fill="currentColor"/>
<path d="M103.373 216.427C98.1419 216.427 93.957 220.578 93.957 225.765C93.957 230.953 98.1419 235.103 103.373 235.103C108.604 235.103 112.789 230.953 112.789 225.765C112.998 220.578 108.604 216.427 103.373 216.427Z" fill="currentColor"/>
<path d="M79.7241 198.584C75.7485 198.584 71.9821 200.659 69.8896 203.979C67.7972 207.507 67.7972 211.657 69.8896 215.184C71.9821 218.712 75.7485 220.787 79.7241 220.579C85.7922 220.372 90.6048 215.599 90.6048 209.582C90.6048 203.772 85.7922 198.791 79.7241 198.584Z" fill="currentColor"/>
<path d="M59.8432 172.021C53.1474 172.021 47.707 177.416 47.707 184.056C47.707 190.696 53.1474 196.091 59.8432 196.091C66.539 196.091 71.9793 190.696 71.9793 184.056C71.9793 177.209 66.539 172.021 59.8432 172.021Z" fill="currentColor"/>
<path d="M58.2381 154.336C58.615 149.078 54.6219 144.512 49.3193 144.138C44.0167 143.765 39.4127 147.725 39.0358 152.983C38.659 158.242 42.6521 162.807 47.9547 163.181C53.2572 163.555 57.8613 159.595 58.2381 154.336Z" fill="currentColor"/>
<path d="M55.7718 125.385C56.0082 121.151 52.7389 117.529 48.4695 117.294C44.2001 117.06 40.5474 120.302 40.3109 124.536C40.0745 128.77 43.3438 132.392 47.6132 132.626C51.8826 132.861 55.5353 129.619 55.7718 125.385Z" fill="currentColor"/>
<path d="M55.8685 90.8887C51.8928 90.8887 48.5449 94.2087 48.5449 98.1513C48.5449 102.094 51.8928 105.414 55.8685 105.414C59.8441 105.414 63.192 102.094 63.192 98.1513C63.192 94.2087 59.8441 90.8887 55.8685 90.8887Z" fill="currentColor"/>
<path d="M69.057 70.3442C66.7554 70.3442 64.6629 71.3818 63.6167 73.4568C62.5705 75.3243 62.5705 77.8144 63.6167 79.6819C64.6629 81.5494 66.9646 82.7945 69.057 82.7945C72.4049 82.7945 75.1251 79.8894 75.1251 76.5694C75.1251 73.0418 72.4049 70.3442 69.057 70.3442Z" fill="currentColor"/>
<path d="M84.954 54.9919C82.0246 54.9919 79.5137 57.2745 79.5137 60.387C79.5137 63.2921 81.8154 65.7821 84.954 65.7821C88.0927 65.7821 90.3944 63.4996 90.3944 60.387C90.3944 57.482 87.8834 54.9919 84.954 54.9919Z" fill="currentColor"/>
<path d="M101.703 44.2004C99.192 44.2004 97.0996 46.2755 97.0996 48.7655C97.0996 51.2556 99.192 53.3306 101.703 53.3306C104.214 53.3306 106.306 51.2556 106.306 48.7655C106.306 46.068 104.214 44.2004 101.703 44.2004Z" fill="currentColor"/>
<path d="M120.741 35.6904C117.812 35.6904 115.301 37.973 115.301 41.0855C115.301 43.9906 117.602 46.4806 120.741 46.4806C123.671 46.4806 126.181 44.1981 126.181 41.0855C126.181 37.973 123.671 35.6904 120.741 35.6904Z" fill="currentColor"/>
<path d="M143.131 30.2959C140.83 30.2959 138.737 31.3334 137.691 33.4085C136.645 35.276 136.645 37.766 137.691 39.6336C138.737 41.5011 141.039 42.7461 143.131 42.7461C146.479 42.7461 149.199 39.8411 149.199 36.521C149.199 33.201 146.479 30.5034 143.131 30.2959Z" fill="currentColor"/>
<path d="M168.662 29.26C165.733 29.26 163.012 30.7125 161.548 33.2026C160.083 35.6926 160.083 38.8052 161.548 41.2952C163.012 43.7853 165.733 45.2378 168.662 45.2378C173.056 45.2378 176.613 41.5027 176.613 37.1452C176.613 32.7876 173.056 29.26 168.662 29.26Z" fill="currentColor"/>
<path d="M194.805 35.2761C189.574 35.2761 185.18 39.4262 185.18 44.8213C185.18 50.0089 189.365 54.3665 194.805 54.3665C200.036 54.3665 204.43 50.2164 204.43 44.8213C204.43 39.6337 200.036 35.2761 194.805 35.2761Z" fill="currentColor"/>
<path d="M219.502 50.2166C213.225 50.2166 208.412 55.1966 208.412 61.2143C208.412 67.2319 213.434 72.212 219.502 72.212C225.779 72.212 230.592 67.2319 230.592 61.2143C230.592 55.1966 225.57 50.2166 219.502 50.2166Z" fill="currentColor"/>
<path d="M239.165 75.1194C234.771 75.1194 230.796 77.4019 228.494 81.137C226.192 84.8721 226.192 89.4371 228.494 93.1722C230.796 96.9073 234.771 99.1898 239.165 99.1898C245.861 98.9823 251.092 93.7947 251.092 87.1546C250.883 80.722 245.652 75.3269 239.165 75.1194Z" fill="currentColor"/>
<path d="M250.262 108.111C246.914 108.111 243.566 109.771 241.892 112.676C240.218 115.581 240.218 119.316 241.892 122.221C243.566 125.126 246.914 126.993 250.262 126.786C255.493 126.578 259.469 122.428 259.469 117.448C259.469 112.468 255.493 108.318 250.262 108.111Z" fill="currentColor"/>
<path d="M299.012 135.504C299.012 144.219 291.898 151.274 283.11 151.274C274.321 151.274 267.207 144.219 267.207 135.504C267.207 126.789 274.321 119.733 283.11 119.733C291.898 119.941 299.012 126.996 299.012 135.504Z" fill="currentColor"/>
<path d="M1082.01 159.781C1082.01 144.841 1073.43 136.956 1060.04 131.56C1049.58 127.41 1040.37 123.883 1033.25 120.978C1026.35 118.28 1020.28 113.508 1020.28 108.32C1020.28 101.265 1029.07 97.1148 1040.79 97.1148C1054.6 97.1148 1065.48 98.9823 1075.73 100.02H1076.15C1077.82 100.02 1078.87 98.7748 1078.87 97.1148V85.4946C1078.87 84.0421 1077.61 82.797 1075.94 82.5895C1070.5 81.3445 1056.69 78.4395 1041.62 78.4395C1012.33 78.4395 998.311 90.8897 998.311 108.32C998.311 119.318 1003.12 130.108 1016.93 135.711C1030.74 141.313 1058.99 147.953 1058.99 159.573C1058.99 168.704 1054.81 173.684 1040.58 173.684C1025.93 173.684 1011.07 171.609 1004.8 170.779H1004.38C1002.7 170.779 1001.45 172.024 1001.45 173.684V184.889C1001.45 186.549 1002.91 187.794 1004.38 188.001C1011.91 189.661 1026.14 192.152 1040.16 192.152C1072.17 192.567 1082.01 175.551 1082.01 159.781Z" fill="currentColor"/>
<path d="M772.326 97.9432H740.73V188C740.73 189.66 739.266 191.112 737.592 191.112H721.899C720.225 191.112 718.76 189.66 718.76 188V97.9432H687.164C685.49 97.9432 684.025 96.9057 684.025 95.0381V82.5879C684.025 80.9279 685.49 79.6829 687.164 79.6829H772.326C774 79.6829 775.465 80.9279 775.465 82.5879V95.0381C775.465 96.9057 774 97.9432 772.326 97.9432Z" fill="currentColor"/>
<path d="M670.211 148.159V82.7949C670.211 81.1349 668.746 79.8899 667.072 79.8899H651.379C649.705 79.8899 648.24 81.1349 648.24 82.7949V147.951C648.24 165.796 639.871 174.304 622.922 174.304C605.973 174.304 597.603 165.796 597.603 147.951V82.7949C597.603 81.1349 596.139 79.8899 594.465 79.8899H578.771C577.098 79.8899 575.633 81.1349 575.633 82.7949V147.951C575.633 181.359 597.603 192.357 622.922 192.357C648.24 192.357 670.211 181.567 670.211 148.159Z" fill="currentColor"/>
<path d="M811.871 142.763H862.508C864.182 142.763 865.646 141.31 865.646 139.65V128.238C865.646 126.578 864.182 125.125 862.508 125.125H811.871V110.807C811.871 97.7347 812.289 97.3197 824.425 97.3197H864.391C866.065 97.3197 867.53 95.8671 867.53 94.2071V84.2469C867.53 81.9644 866.693 81.3419 864.391 80.9269C859.369 80.0968 849.116 78.6443 830.284 78.6443C804.129 78.6443 790.109 78.4368 790.109 110.807V160.401C790.109 192.771 804.129 192.564 830.284 192.564C849.116 192.564 859.369 191.111 864.391 190.281C866.693 190.074 867.53 189.244 867.53 186.961V177.001C867.53 175.341 866.065 173.889 864.391 173.889H824.425C812.498 173.889 811.871 173.474 811.871 160.401V142.763Z" fill="currentColor"/>
<path d="M499.474 142.763H550.111C551.785 142.763 553.25 141.31 553.25 139.65V128.238C553.25 126.578 551.785 125.125 550.111 125.125H499.474V110.807C499.474 97.7347 499.893 97.3197 512.029 97.3197H551.994C553.668 97.3197 555.133 95.8671 555.133 94.2071V84.2469C555.133 81.9644 554.296 81.3419 551.994 80.9269C546.973 80.0968 536.72 78.6443 517.888 78.6443C491.732 78.6443 477.713 78.4368 477.713 110.807V160.401C477.713 192.771 491.732 192.564 517.888 192.564C536.72 192.564 546.973 191.111 551.994 190.281C554.296 190.074 555.133 189.244 555.133 186.961V177.001C555.133 175.341 553.668 173.889 551.994 173.889H512.029C500.102 173.889 499.474 173.474 499.474 160.401V142.763Z" fill="currentColor"/>
<path d="M985.125 187.999L960.434 146.083C973.407 141.103 981.777 131.973 981.777 115.372V114.127C981.777 87.3594 959.388 78.6443 934.906 78.6443C923.398 78.6443 905.612 79.4743 897.452 80.7193C894.313 81.1343 892.43 82.3794 892.43 85.4919V188.206C892.43 189.866 893.894 191.319 895.568 191.319H911.471C913.145 191.319 914.4 189.866 914.4 188.206V149.403C917.957 149.611 930.721 150.026 934.906 150.026H938.463L961.271 187.999C962.108 189.451 962.736 191.111 964.41 191.111H983.66C984.915 191.111 985.543 190.281 985.543 189.244C985.543 188.829 985.334 188.414 985.125 187.999ZM959.806 115.372C959.806 129.068 951.018 132.18 934.697 132.18C931.977 132.18 916.702 131.765 914.191 131.765V97.9421C916.911 97.5271 931.349 97.3196 934.697 97.3196C950.6 97.3196 959.806 102.3 959.806 114.127V115.372Z" fill="currentColor"/>
<path d="M460.541 187.999L435.641 146.083C448.614 141.103 456.984 131.973 456.984 115.372V114.127C456.984 87.3594 434.595 78.6443 410.113 78.6443C398.605 78.6443 380.819 79.4743 372.659 80.7193C369.52 81.1343 367.637 82.3794 367.637 85.4919V188.206C367.637 189.866 369.101 191.319 370.775 191.319H386.678C388.352 191.319 389.607 189.866 389.607 188.206V149.403C393.164 149.611 405.928 150.026 410.113 150.026H413.67L436.478 187.999C437.315 189.451 437.943 191.111 439.617 191.111H458.867C460.123 191.111 460.75 190.281 460.75 189.244C460.75 188.829 460.75 188.414 460.541 187.999ZM435.222 115.372C435.222 129.068 426.434 132.18 410.322 132.18C407.602 132.18 392.328 131.765 389.817 131.765V97.9421C392.537 97.5271 406.975 97.3196 410.322 97.3196C426.225 97.3196 435.222 102.3 435.222 114.127V115.372Z" fill="currentColor"/>
</g>
<defs>
<clipPath id="clip0_3938_12206">
<rect width="1082" height="271" fill="currentColor"/>
</clipPath>
</defs>
</svg>
