<svg width="1049" height="164" viewBox="0 0 1049 164" fill="none" xmlns="http://www.w3.org/2000/svg">
<path d="M421.846 9.77297C421.846 8.21103 422.467 6.71307 423.571 5.60861C424.676 4.50415 426.174 3.88367 427.735 3.88367H450.376C451.15 3.88265 451.917 4.03417 452.633 4.32959C453.349 4.625 454 5.05852 454.548 5.60539C455.096 6.15226 455.532 6.80178 455.829 7.51685C456.126 8.23193 456.28 8.99856 456.281 9.77297V28.2256C456.281 29.7896 456.902 31.2895 458.008 32.3955C459.114 33.5014 460.614 34.1227 462.178 34.1227H480.024C481.585 34.1268 483.081 34.7486 484.184 35.8521C485.288 36.9557 485.91 38.4513 485.914 40.012V123.146C485.916 123.92 485.765 124.687 485.47 125.402C485.174 126.118 484.741 126.768 484.193 127.315C483.646 127.862 482.996 128.296 482.281 128.591C481.565 128.886 480.798 129.037 480.024 129.035H462.178C461.403 129.035 460.635 129.188 459.919 129.485C459.203 129.782 458.553 130.217 458.005 130.765C457.457 131.314 457.023 131.965 456.727 132.681C456.431 133.397 456.28 134.165 456.281 134.94V153.377C456.282 154.153 456.13 154.92 455.833 155.637C455.537 156.353 455.102 157.004 454.553 157.552C454.004 158.1 453.353 158.534 452.636 158.83C451.919 159.125 451.151 159.276 450.376 159.274H427.735C426.961 159.274 426.195 159.122 425.48 158.825C424.765 158.529 424.115 158.094 423.568 157.547C423.021 156.999 422.588 156.349 422.292 155.633C421.997 154.918 421.845 154.151 421.846 153.377V130.721C421.845 129.947 421.997 129.181 422.292 128.465C422.588 127.75 423.021 127.1 423.568 126.552C424.115 126.004 424.765 125.57 425.48 125.273C426.195 124.977 426.961 124.824 427.735 124.824H445.605C447.168 124.824 448.667 124.204 449.772 123.1C450.878 121.995 451.5 120.498 451.502 118.935V44.2075C451.506 43.4319 451.355 42.6633 451.06 41.946C450.765 41.2287 450.331 40.5769 449.783 40.0281C449.234 39.4792 448.583 39.0442 447.866 38.7481C447.149 38.452 446.381 38.3006 445.605 38.3027H427.735C426.961 38.3037 426.194 38.1518 425.479 37.8557C424.763 37.5596 424.113 37.1252 423.566 36.5773C423.019 36.0294 422.585 35.3788 422.29 34.6629C421.995 33.9471 421.844 33.1799 421.846 32.4056V9.77297ZM257.544 9.77297C257.544 8.99893 257.391 8.23247 257.095 7.51744C256.798 6.80241 256.364 6.15283 255.816 5.60586C255.269 5.05889 254.618 4.62524 253.903 4.32974C253.188 4.03423 252.421 3.88265 251.647 3.88367H228.975C227.415 3.88777 225.919 4.50957 224.816 5.61314C223.712 6.71671 223.09 8.2123 223.086 9.77297V28.2256C223.086 29.7896 222.465 31.2895 221.359 32.3955C220.253 33.5014 218.753 34.1227 217.189 34.1227H199.342C197.782 34.1268 196.286 34.7486 195.183 35.8521C194.079 36.9557 193.457 38.4513 193.453 40.012V123.146C193.451 123.92 193.602 124.687 193.897 125.402C194.193 126.118 194.626 126.768 195.174 127.315C195.721 127.862 196.371 128.296 197.086 128.591C197.802 128.886 198.568 129.037 199.342 129.035H217.189C217.964 129.035 218.732 129.188 219.448 129.485C220.164 129.782 220.814 130.217 221.362 130.765C221.909 131.314 222.344 131.965 222.639 132.681C222.935 133.397 223.087 134.165 223.086 134.94V153.377C223.088 154.939 223.709 156.437 224.813 157.542C225.917 158.647 227.413 159.27 228.975 159.274H251.647C252.422 159.275 253.189 159.123 253.905 158.827C254.621 158.531 255.271 158.097 255.819 157.549C256.367 157.002 256.801 156.351 257.097 155.635C257.393 154.919 257.545 154.152 257.544 153.377V130.721C257.545 129.947 257.393 129.179 257.097 128.463C256.801 127.747 256.367 127.097 255.819 126.549C255.271 126.001 254.621 125.567 253.905 125.271C253.189 124.975 252.422 124.823 251.647 124.824H233.793C232.23 124.824 230.731 124.204 229.625 123.1C228.52 121.995 227.898 120.498 227.895 118.935V44.2075C227.894 43.4325 228.046 42.6648 228.342 41.9484C228.638 41.2321 229.072 40.5811 229.62 40.0326C230.168 39.4842 230.818 39.0492 231.534 38.7523C232.25 38.4555 233.017 38.3027 233.793 38.3027H251.647C252.422 38.3047 253.19 38.1536 253.906 37.858C254.622 37.5623 255.273 37.128 255.821 36.58C256.369 36.032 256.804 35.3811 257.099 34.6647C257.395 33.9484 257.546 33.1806 257.544 32.4056V9.77297ZM318.706 44.6504C318.708 43.3467 319.227 42.0969 320.148 41.175C321.07 40.2531 322.32 39.7343 323.624 39.7323H373.38C374.336 39.737 375.27 40.0202 376.067 40.5473C376.865 41.0744 377.492 41.8226 377.871 42.7002L385.935 61.3316C386.311 62.2125 386.936 62.9639 387.735 63.4928C388.533 64.0217 389.469 64.3049 390.426 64.3073H407.107C407.752 64.3053 408.392 64.4306 408.988 64.676C409.585 64.9215 410.127 65.2823 410.584 65.7377C411.041 66.1932 411.403 66.7343 411.651 67.3301C411.898 67.926 412.025 68.5647 412.025 69.2099V124.21C412.025 125.515 411.507 126.766 410.585 127.688C409.663 128.61 408.412 129.128 407.107 129.128H385.998C384.693 129.128 383.442 128.61 382.52 127.688C381.598 126.766 381.079 125.515 381.079 124.21V73.1412C381.079 71.8396 380.563 70.591 379.644 69.6691C378.726 68.7472 377.479 68.2273 376.177 68.2231H354.554C353.253 68.2273 352.006 68.7472 351.087 69.6691C350.168 70.591 349.652 71.8396 349.652 73.1412V124.21C349.652 125.515 349.134 126.766 348.211 127.688C347.289 128.61 346.038 129.128 344.734 129.128H323.624C322.978 129.128 322.338 129.001 321.742 128.754C321.145 128.507 320.603 128.145 320.146 127.688C319.689 127.231 319.327 126.689 319.08 126.092C318.833 125.496 318.706 124.856 318.706 124.21V44.6504Z" fill="currentColor"/>
<path d="M268.609 44.6507C268.613 43.3476 269.133 42.099 270.054 41.1776C270.976 40.2561 272.224 39.7366 273.528 39.7325H294.645C295.947 39.7367 297.195 40.2564 298.115 41.178C299.036 42.0997 299.553 43.3483 299.555 44.6507V124.211C299.555 125.514 299.038 126.763 298.118 127.686C297.197 128.608 295.948 129.127 294.645 129.129H273.528C272.223 129.129 270.972 128.611 270.05 127.688C269.128 126.766 268.609 125.515 268.609 124.211V44.6507Z" fill="currentColor"/>
<path d="M62.3116 81.9365V82.4571C66.5072 83.91 70.1666 86.5517 72.8704 90.0712C75.7016 93.8827 77.156 98.5419 76.996 103.287C77.0854 106.775 76.4161 110.24 75.0344 113.444C73.6526 116.647 71.5915 119.512 68.9934 121.841C63.7196 126.655 56.7857 129.24 49.6473 129.051H0V39.6237H48.039C55.6065 39.6237 61.9231 41.8069 66.9889 46.1734C69.4651 48.2603 71.4366 50.8809 72.7553 53.8385C74.074 56.7962 74.7057 60.0141 74.603 63.2508C74.6242 67.2458 73.4499 71.1557 71.231 74.4778C69.0203 77.752 65.9239 80.337 62.3116 81.9365ZM43.6414 59.2495H22.0188V75.1382H43.6414C44.7561 75.1863 45.8683 74.9964 46.9039 74.5811C47.9395 74.1658 48.8747 73.5346 49.6473 72.7297C51.1546 71.2534 52.017 69.2334 52.0481 67.1201C52.0481 65.0689 51.24 63.1032 49.8027 61.6425C49.002 60.8329 48.0391 60.2018 46.9772 59.7907C45.9154 59.3796 44.7785 59.1901 43.6414 59.2495ZM22.0188 109.565H45.5061C46.702 109.598 47.8914 109.377 48.9961 108.918C50.1008 108.459 51.0958 107.771 51.916 106.9C53.5165 105.307 54.4333 103.147 54.4488 100.886C54.4422 99.8668 54.212 98.8611 53.7744 97.9402C53.3367 97.0192 52.7024 96.2056 51.916 95.5565C50.1817 93.938 47.8771 93.0721 45.5061 93.148H22.0188V109.565ZM157.139 129.051H87.446V39.6237H157.139V60.9511H109.457V73.7785H150.403V93.8084H109.457V107.693H157.139V129.043V129.051ZM586.529 91.7028H609.069C608.162 102.567 603.08 112.657 594.889 119.852C586.615 127.233 576.142 130.923 563.462 130.923C549.601 130.923 538.397 126.479 529.858 117.591C521.32 108.695 517.046 97.6698 517.039 84.4927C517.039 71.269 521.312 60.1586 529.851 51.1614C538.389 42.1643 549.585 37.6347 563.462 37.557C575.831 37.557 586.149 41.2009 594.408 48.4887C602.533 55.4226 607.685 65.2134 608.797 75.8375H586.001C584.828 70.9955 582.021 66.7063 578.053 63.6937C573.794 60.5158 568.558 58.9272 563.252 59.2029C555.871 59.2884 550.044 61.7358 545.77 66.5451C541.549 71.4694 539.316 77.7916 539.508 84.2752C539.338 90.8219 541.621 97.1958 545.91 102.145C550.129 106.916 555.98 109.309 563.469 109.309C568.875 109.482 574.182 107.837 578.542 104.639C582.649 101.403 585.479 96.8175 586.529 91.6951V91.7028ZM638.352 128.911H616.341V39.5615H662.492C672.095 39.5615 679.74 41.737 685.428 46.0879C691.115 50.4389 694.005 56.5768 694.091 64.5017C694.091 72.9472 691.162 79.2638 685.296 83.4438V83.9722C692.941 85.8368 696.763 91.5708 696.763 101.166V128.911H674.752V105.043C674.752 101.749 673.066 100.109 669.694 100.117H638.344V128.919L638.352 128.911ZM638.352 60.9044V80.639H660.627C663.642 80.7944 666.61 79.8465 668.972 77.9663C670.046 77.0533 670.895 75.9043 671.451 74.6091C672.008 73.3139 672.257 71.9075 672.181 70.4998C672.248 69.1519 671.992 67.8074 671.434 66.5788C670.876 65.3501 670.032 64.2729 668.972 63.4373C666.593 61.6664 663.675 60.7717 660.713 60.9044H638.352ZM758.655 39.5693H783.067L748.12 96.3723V128.927H726.117V96.4966L691.045 39.5615H715.985L737.305 75.5578L758.655 39.5693ZM834.222 39.5693C838.383 39.4645 842.522 40.2136 846.382 41.7704C850.243 43.3272 853.744 45.6586 856.668 48.6208C862.721 54.5723 865.743 62.0621 865.735 71.0747C865.735 80.3205 862.666 87.9346 856.536 93.8939C853.617 96.8074 850.139 99.0997 846.311 100.633C842.483 102.166 838.383 102.907 834.261 102.813H810.074V128.958H788.079V39.5693H834.222ZM810.074 81.9599H832.225C835.123 82.0376 837.936 80.9887 840.08 79.0307C841.153 78.0331 841.995 76.8134 842.548 75.4568C843.101 74.1001 843.351 72.6391 843.281 71.1758C843.318 69.7766 843.034 68.3876 842.449 67.116C841.864 65.8443 840.995 64.7239 839.909 63.8413C837.809 61.8999 835.038 60.8497 832.179 60.9122H810.074V81.9676V81.9599ZM867.957 39.5693H947.859V60.8889H918.91V128.903H896.906V60.9044H867.957V39.5693ZM1028.22 117.583C1019.51 126.464 1008.09 130.908 993.94 130.923C979.8 130.939 968.378 126.495 959.684 117.591C950.967 108.609 946.608 97.5766 946.608 84.4927C946.608 71.4166 950.967 60.3062 959.684 51.1614C968.386 42.0944 979.807 37.557 993.94 37.557C1008.08 37.557 1019.5 42.0944 1028.22 51.1537C1036.93 60.2285 1041.29 71.3389 1041.29 84.5005C1041.29 97.6543 1036.93 108.679 1028.22 117.583ZM993.94 109.316C1001.51 109.316 1007.55 106.869 1012.08 101.974C1016.58 97.1785 1019.02 90.8106 1018.88 84.2363C1018.97 80.9793 1018.41 77.7369 1017.25 74.6946C1016.08 71.6524 1014.32 68.8699 1012.08 66.5063C1007.64 61.6037 1001.59 59.1563 993.94 59.1641C986.295 59.1641 980.203 61.6192 975.666 66.5063C971.215 71.3195 968.822 77.6827 969 84.2363C968.855 90.7868 971.243 97.1407 975.666 101.974C980.203 106.869 986.295 109.316 993.94 109.316Z" fill="currentColor"/>
</svg>
