<svg width="512" height="512" viewBox="0 0 512 512" fill="none" xmlns="http://www.w3.org/2000/svg">
<rect width="512" height="512" rx="134" fill="#35BACF"/>
<path d="M179.722 289.102C198.096 289.102 212.99 274.208 212.99 255.834C212.99 237.461 198.096 222.566 179.722 222.566C161.349 222.566 146.454 237.461 146.454 255.834C146.454 274.208 161.349 289.102 179.722 289.102Z" fill="white"/>
<path d="M335.864 289.434C354.237 289.434 369.132 274.54 369.132 256.166C369.132 237.793 354.237 222.898 335.864 222.898C317.49 222.898 302.596 237.793 302.596 256.166C302.596 274.54 317.49 289.434 335.864 289.434Z" fill="white"/>
<path d="M335.855 319.564C319.555 319.553 303.885 313.263 292.101 302.001C280.316 290.739 273.323 275.371 272.573 259.087H242.951C242.274 275.707 235.087 291.393 222.941 302.758C210.795 314.123 194.667 320.254 178.039 319.826C161.41 319.399 145.618 312.448 134.072 300.474C122.526 288.501 116.154 272.466 116.331 255.834V188.344C104.895 199.035 96.3602 212.454 91.5243 227.343C86.6885 242.233 85.7102 258.106 88.6812 273.477C91.6522 288.847 98.4752 303.212 108.511 315.227C118.547 327.242 131.469 336.513 146.065 342.173V376.956H176.191V348.232H179.725C180.903 348.232 182.026 348.232 183.204 348.232V376.788H213.386V342.005C231.595 334.87 247.086 322.167 257.65 305.707C267.221 320.83 280.97 332.855 297.234 340.324C313.498 347.794 331.578 350.389 349.286 347.795C366.994 345.201 383.571 337.529 397.008 325.708C410.446 313.887 420.169 298.424 425 281.191H393.976C389.097 292.567 380.992 302.264 370.663 309.083C360.334 315.903 348.233 319.547 335.855 319.564Z" fill="white"/>
<path d="M242.948 252.856H272.626C273.424 238.619 279.004 225.068 288.461 214.396C297.918 203.724 310.7 196.555 324.737 194.05C338.775 191.545 353.247 193.85 365.812 200.592C378.377 207.334 388.299 218.119 393.973 231.2H424.997C421.115 217.381 414.085 204.648 404.459 194C394.833 183.352 382.872 175.078 369.513 169.826V135.043H339.442V163.598C338.264 163.598 337.142 163.598 335.964 163.598C334.786 163.598 333.608 163.598 332.43 163.598V135.043H302.191V169.826C283.977 176.978 268.472 189.676 257.871 206.123C246.426 188.045 229.062 174.5 208.743 167.798C188.423 161.097 166.408 161.655 146.454 169.377V201.972C155.793 196.154 166.49 192.876 177.486 192.463C188.481 192.05 199.393 194.517 209.143 199.618C218.892 204.719 227.139 212.279 233.069 221.547C238.998 230.816 242.404 241.473 242.948 252.463V252.856Z" fill="white"/>
</svg>
