<svg width="885" height="146" viewBox="0 0 885 146" fill="none" xmlns="http://www.w3.org/2000/svg">
<path d="M55.8394 92.7744C66.9042 92.7744 75.8741 83.8046 75.8741 72.7398C75.8741 61.6749 66.9042 52.7051 55.8394 52.7051C44.7745 52.7051 35.8047 61.6749 35.8047 72.7398C35.8047 83.8046 44.7745 92.7744 55.8394 92.7744Z" fill="#35BACF"/>
<path d="M149.871 92.9756C160.935 92.9756 169.905 84.0058 169.905 72.9409C169.905 61.8761 160.935 52.9062 149.871 52.9062C138.806 52.9062 129.836 61.8761 129.836 72.9409C129.836 84.0058 138.806 92.9756 149.871 92.9756Z" fill="#35BACF"/>
<path d="M149.866 111.12C140.049 111.113 130.613 107.325 123.516 100.542C116.419 93.7602 112.208 84.505 111.756 74.699H93.9171C93.5094 84.7077 89.1808 94.1544 81.8665 100.998C74.5521 107.843 64.839 111.535 54.8253 111.277C44.8115 111.02 35.3009 106.834 28.3477 99.6231C21.3945 92.4124 17.5569 82.7559 17.6637 72.7394V32.0957C10.777 38.5344 5.63688 46.6154 2.72463 55.5821C-0.187615 64.5488 -0.776731 74.108 1.01245 83.3644C2.80163 92.6209 6.91057 101.272 12.9546 108.507C18.9985 115.743 26.7799 121.326 35.5699 124.735V145.682H53.7126V128.384H55.8411C56.5506 128.384 57.2263 128.384 57.9358 128.384V145.581H76.1123V124.634C87.0783 120.337 96.4073 112.687 102.769 102.775C108.533 111.882 116.813 119.123 126.607 123.622C136.402 128.12 147.29 129.683 157.954 128.12C168.618 126.558 178.601 121.938 186.693 114.819C194.786 107.7 200.641 98.3883 203.55 88.0104H184.867C181.929 94.861 177.048 100.701 170.828 104.808C164.607 108.915 157.32 111.109 149.866 111.12Z" fill="#35BACF"/>
<path d="M93.9154 70.9491H111.788C112.269 62.3754 115.629 54.2147 121.324 47.7879C127.019 41.361 134.717 37.0439 143.17 35.5353C151.624 34.0267 160.34 35.4148 167.906 39.475C175.473 43.5352 181.449 50.0298 184.865 57.908H203.549C201.211 49.5856 196.978 41.9177 191.181 35.5052C185.384 29.0926 178.18 24.1097 170.135 20.9469V0H152.026V17.1967C151.317 17.1967 150.641 17.1967 149.931 17.1967C149.222 17.1967 148.512 17.1967 147.803 17.1967V0H129.593V20.9469C118.624 25.2539 109.287 32.9009 102.902 42.806C96.01 31.9192 85.5531 23.7617 73.3163 19.7259C61.0795 15.6901 47.8213 16.0261 35.8047 20.6766V40.3059C41.4289 36.8022 47.8708 34.8283 54.4925 34.5797C61.1141 34.3311 67.6859 35.8163 73.557 38.8884C79.4281 41.9605 84.395 46.5129 87.9658 52.0948C91.5366 57.6767 93.5875 64.0944 93.9154 70.7126V70.9491Z" fill="#35BACF"/>
<path d="M239.207 48.3593H261.864C263.875 48.3593 265.676 48.6633 267.266 49.2712C268.902 49.8792 270.282 50.7209 271.404 51.7965C272.527 52.8721 273.368 54.2049 273.929 55.7949C274.537 57.3381 274.841 59.045 274.841 60.9155C274.841 62.7861 274.584 64.3761 274.07 65.6855C273.602 66.9481 272.947 68.0003 272.106 68.8421C271.311 69.6838 270.375 70.3151 269.3 70.736C268.271 71.1569 267.195 71.3907 266.073 71.4375V71.8584C267.149 71.8584 268.294 72.0688 269.51 72.4897C270.773 72.9106 271.919 73.5886 272.947 74.5239C274.023 75.4125 274.912 76.5816 275.613 78.0312C276.314 79.4342 276.665 81.1878 276.665 83.2922C276.665 85.2563 276.338 87.1035 275.683 88.8338C275.075 90.5173 274.21 91.9904 273.088 93.253C271.965 94.5156 270.633 95.5211 269.089 96.2693C267.546 96.9708 265.863 97.3215 264.039 97.3215H239.207V48.3593ZM248.466 89.4651H261.373C263.15 89.4651 264.53 89.0208 265.512 88.1323C266.494 87.197 266.985 85.8643 266.985 84.134V81.749C266.985 80.0187 266.494 78.6859 265.512 77.7507C264.53 76.8154 263.15 76.3477 261.373 76.3477H248.466V89.4651ZM248.466 68.7719H259.9C261.584 68.7719 262.893 68.3277 263.828 67.4391C264.764 66.5039 265.231 65.2178 265.231 63.5811V61.4066C265.231 59.7698 264.764 58.5072 263.828 57.6187C262.893 56.6834 261.584 56.2157 259.9 56.2157H248.466V68.7719Z" fill="black"/>
<path d="M287.824 97.3215V48.3593H297.084V89.1144H316.374V97.3215H287.824Z" fill="black"/>
<path d="M343.126 98.1633C339.899 98.1633 336.977 97.6255 334.358 96.5499C331.739 95.4743 329.494 93.8609 327.624 91.7098C325.8 89.5586 324.374 86.9165 323.345 83.7832C322.316 80.65 321.802 77.0024 321.802 72.8404C321.802 68.7252 322.316 65.1009 323.345 61.9677C324.374 58.7878 325.8 56.1222 327.624 53.971C329.494 51.8199 331.739 50.2065 334.358 49.1309C336.977 48.0554 339.899 47.5176 343.126 47.5176C346.353 47.5176 349.276 48.0554 351.894 49.1309C354.513 50.2065 356.758 51.8199 358.629 53.971C360.499 56.1222 361.925 58.7878 362.907 61.9677C363.936 65.1009 364.451 68.7252 364.451 72.8404C364.451 77.0024 363.936 80.65 362.907 83.7832C361.925 86.9165 360.499 89.5586 358.629 91.7098C356.758 93.8609 354.513 95.4743 351.894 96.5499C349.276 97.6255 346.353 98.1633 343.126 98.1633ZM343.126 89.9561C346.633 89.9561 349.416 88.787 351.474 86.4488C353.578 84.1106 354.63 80.8371 354.63 76.6283V69.0525C354.63 64.8437 353.578 61.5702 351.474 59.232C349.416 56.8938 346.633 55.7247 343.126 55.7247C339.619 55.7247 336.813 56.8938 334.709 59.232C332.651 61.5702 331.622 64.8437 331.622 69.0525V76.6283C331.622 80.8371 332.651 84.1106 334.709 86.4488C336.813 88.787 339.619 89.9561 343.126 89.9561Z" fill="black"/>
<path d="M394.958 98.1633C391.732 98.1633 388.809 97.6488 386.19 96.62C383.618 95.5445 381.397 93.9545 379.526 91.8501C377.702 89.7457 376.299 87.1503 375.317 84.0638C374.335 80.9306 373.844 77.3064 373.844 73.1912C373.844 69.0759 374.335 65.4283 375.317 62.2483C376.299 59.0216 377.702 56.3326 379.526 54.1815C381.397 51.9836 383.618 50.3234 386.19 49.2011C388.809 48.0787 391.732 47.5176 394.958 47.5176C399.354 47.5176 403.002 48.4529 405.901 50.3234C408.8 52.194 411.115 55.0232 412.846 58.8111L404.919 63.0199C404.218 60.822 403.072 59.0683 401.482 57.7589C399.892 56.4028 397.717 55.7247 394.958 55.7247C391.498 55.7247 388.739 56.8938 386.681 59.232C384.67 61.5702 383.665 64.8437 383.665 69.0525V76.7686C383.665 81.0242 384.67 84.2977 386.681 86.5891C388.739 88.8338 391.498 89.9561 394.958 89.9561C397.717 89.9561 399.962 89.2079 401.692 87.7114C403.469 86.215 404.755 84.3678 405.55 82.1699L413.056 86.5891C411.279 90.2367 408.917 93.0893 405.971 95.147C403.025 97.1578 399.354 98.1633 394.958 98.1633Z" fill="black"/>
<path d="M438.842 75.1552L432.318 82.8713V97.3215H423.059V48.3593H432.318V72.4897H432.669L439.614 63.3005L451.749 48.3593H462.411L445.366 68.7719L463.814 97.3215H452.801L438.842 75.1552Z" fill="black"/>
<path d="M489.179 98.1633C485.952 98.1633 483.03 97.6488 480.411 96.62C477.839 95.5445 475.617 93.9545 473.747 91.8501C471.923 89.7457 470.52 87.1503 469.538 84.0638C468.556 80.9306 468.065 77.3064 468.065 73.1912C468.065 69.0759 468.556 65.4283 469.538 62.2483C470.52 59.0216 471.923 56.3326 473.747 54.1815C475.617 51.9836 477.839 50.3234 480.411 49.2011C483.03 48.0787 485.952 47.5176 489.179 47.5176C493.575 47.5176 497.223 48.4529 500.122 50.3234C503.021 52.194 505.336 55.0232 507.066 58.8111L499.14 63.0199C498.438 60.822 497.293 59.0683 495.703 57.7589C494.113 56.4028 491.938 55.7247 489.179 55.7247C485.719 55.7247 482.959 56.8938 480.902 59.232C478.891 61.5702 477.886 64.8437 477.886 69.0525V76.7686C477.886 81.0242 478.891 84.2977 480.902 86.5891C482.959 88.8338 485.719 89.9561 489.179 89.9561C491.938 89.9561 494.183 89.2079 495.913 87.7114C497.69 86.215 498.976 84.3678 499.771 82.1699L507.277 86.5891C505.5 90.2367 503.138 93.0893 500.192 95.147C497.246 97.1578 493.575 98.1633 489.179 98.1633Z" fill="black"/>
<path d="M546.952 76.6283H526.539V97.3215H517.28V48.3593H526.539V68.4212H546.952V48.3593H556.211V97.3215H546.952V76.6283Z" fill="black"/>
<path d="M600.105 97.3215L596.177 84.8354H578.781L574.923 97.3215H565.523L581.937 48.3593H593.441L609.715 97.3215H600.105ZM587.619 56.7769H587.268L581.025 76.9089H593.932L587.619 56.7769Z" fill="black"/>
<path d="M617.002 97.3215V89.886H623.455V55.7949H617.002V48.3593H639.238V55.7949H632.714V89.886H639.238V97.3215H617.002Z" fill="black"/>
<path d="M664.831 72.2091L659.781 62.0379H659.57V97.3215H650.802V48.3593H660.973L675.704 73.4717L680.754 83.643H680.965V48.3593H689.733V97.3215H679.562L664.831 72.2091Z" fill="black"/>
<path d="M710.759 97.3215L699.396 48.3593H708.655L713.495 71.8584L716.511 86.8697H716.722L720.229 71.8584L725.841 48.3593H736.082L741.694 71.8584L745.131 86.8697H745.342L748.428 71.8584L753.408 48.3593H762.247L750.532 97.3215H740.081L733.838 71.4375L730.821 58.5306H730.681L727.524 71.4375L721.281 97.3215H710.759Z" fill="#35BACF"/>
<path d="M769.978 97.3215V89.886H776.432V55.7949H769.978V48.3593H792.215V55.7949H785.691V89.886H792.215V97.3215H769.978Z" fill="#35BACF"/>
<path d="M813.038 97.3215H803.778V48.3593H825.875C828.119 48.3593 830.13 48.7101 831.907 49.4115C833.684 50.113 835.181 51.1418 836.396 52.498C837.659 53.8074 838.618 55.3974 839.273 57.2679C839.974 59.1385 840.325 61.2195 840.325 63.511C840.325 66.878 839.553 69.7774 838.01 72.2091C836.513 74.6408 834.245 76.3711 831.206 77.3999L841.237 97.3215H830.925L821.806 78.4521H813.038V97.3215ZM824.963 70.6659C826.74 70.6659 828.143 70.1982 829.171 69.263C830.2 68.2809 830.715 66.9014 830.715 65.1243V61.8976C830.715 60.1205 830.2 58.7644 829.171 57.8291C828.143 56.8938 826.74 56.4262 824.963 56.4262H813.038V70.6659H824.963Z" fill="#35BACF"/>
<path d="M852.464 97.3215V48.3593H884.732V56.5665H861.724V68.4212H882.066V76.6283H861.724V89.1144H884.732V97.3215H852.464Z" fill="#35BACF"/>
</svg>
